<svg width="1104" height="405" viewBox="0 0 1104 405" fill="none" xmlns="http://www.w3.org/2000/svg">
<path opacity="0.1" d="M1102.77 199.427C1095.85 218.258 1060.34 227.697 1040.44 241.744C1002.95 268.221 1017.55 306.886 1041.34 337.851C1049.3 348.219 1058.34 359.197 1054.96 370.315C1050.85 383.914 1029 393.855 1006.06 399.126C964.261 408.725 914.199 406.437 875.771 393.159C842.568 381.686 818.78 363.057 785.01 352.073C728.488 333.75 656.549 340.701 595.17 353.297C551.755 362.227 504.28 373.847 461.135 364.522C430.778 357.953 409.788 341.965 398.352 325.054C392.838 316.873 388.827 308.016 378.287 301.534C372.017 297.674 363.836 294.938 355.465 292.637C278.948 271.566 182.286 282.851 108.007 259.478C57.8251 243.698 25.6873 213.93 11.4647 182.884C-2.75792 151.839 -1.10574 119.288 2.50714 87.3129C5.07498 64.5689 9.68315 40.3399 35.8193 22.8003C63.4684 4.25062 110.914 -2.61939 153.81 0.879163C196.707 4.37772 235.573 16.9739 269.781 31.7708C312.578 50.2737 352.171 73.3053 404.652 80.7974C440.393 85.9014 477.985 83.1052 514.85 82.1353C576.478 80.5231 638.126 84.1421 699.406 88.0487C729.265 89.9686 759.223 91.9821 788.822 94.8987C795.458 95.5498 802.093 96.2521 808.728 97.0058C812.052 97.3871 815.377 97.7818 818.681 98.1898C821.269 98.5042 823.846 98.8588 826.424 99.1732C830.492 99.7039 834.546 100.261 838.587 100.846C850.192 102.518 861.687 104.411 873.063 106.565C912.616 114.064 944.326 127.683 981.679 137.196C1006.02 143.397 1032.57 145.109 1055.62 153.003C1083.98 162.696 1110.04 179.627 1102.77 199.427Z" fill="url(#paint0_linear_1_168)"/>
<defs>
<linearGradient id="paint0_linear_1_168" x1="552" y1="0" x2="552" y2="405" gradientUnits="userSpaceOnUse">
<stop offset="0.000752434" stop-color="#5D8698"/>
<stop offset="0.996305" stop-color="#97B1BE"/>
</linearGradient>
</defs>
</svg>
