<svg width="1056" height="853" viewBox="0 0 1056 853" fill="none" xmlns="http://www.w3.org/2000/svg">
<g id="undraw_waiting__for_you_ldha 1" clip-path="url(#clip0_3_2)">
<g id="Group 1">
<path id="Vector" opacity="0.1" d="M149.651 195.222C157.182 196.042 165.845 198.098 172.453 202.865C172.022 201.568 171.646 200.405 171.346 199.428C163.656 174.344 122.64 178.905 122.64 178.905C141.176 181.019 145.963 188.071 149.651 195.222Z" fill="#FF9F63"/>
<path id="Vector_2" d="M370.987 829.269C387.705 843.746 389.747 866 389.747 866C389.747 866 364.684 864.783 347.965 850.306C331.247 835.829 329.205 813.575 329.205 813.575C329.205 813.575 354.269 814.792 370.987 829.269Z" fill="#FF9F63"/>
<path id="Vector_3" d="M315.576 286.081C314.123 306.795 296.475 322.672 296.475 322.672C296.475 322.672 281.183 304.966 282.636 284.252C284.09 263.538 301.738 247.661 301.738 247.661C301.738 247.661 317.029 265.367 315.576 286.081Z" fill="#FF9F63"/>
<path id="Vector_4" d="M131.61 155.131C151.347 166.2 158.545 187.59 158.545 187.59C158.545 187.59 133.745 191.034 114.009 179.966C94.2728 168.897 87.0741 147.507 87.0741 147.507C87.0741 147.507 111.874 144.062 131.61 155.131Z" fill="#FF9F63"/>
<path id="Vector_5" d="M87.5364 407.664C107.273 418.732 114.471 440.123 114.471 440.123C114.471 440.123 89.6711 443.567 69.9349 432.499C50.1986 421.43 43 400.04 43 400.04C43 400.04 67.8002 396.595 87.5364 407.664Z" fill="#FF9F63"/>
<path id="Vector_6" d="M192.536 504.526C212.273 515.594 219.471 536.985 219.471 536.985C219.471 536.985 194.671 540.429 174.935 529.361C155.199 518.292 148 496.902 148 496.902C148 496.902 172.8 493.457 192.536 504.526Z" fill="#FF9F63"/>
<path id="Vector_7" d="M488.766 192.049C482.814 212.117 462.033 224.64 462.033 224.64C462.033 224.64 450.902 204.627 456.854 184.56C462.806 164.492 483.587 151.969 483.587 151.969C483.587 151.969 494.718 171.982 488.766 192.049Z" fill="#FF9F63"/>
<path id="Vector_8" d="M676.516 207.696C669.52 227.496 648.106 239.145 648.106 239.145C648.106 239.145 638.035 218.693 645.03 198.894C652.026 179.094 673.439 167.445 673.439 167.445C673.439 167.445 683.511 187.897 676.516 207.696Z" fill="#FF9F63"/>
<path id="Vector_9" d="M879.444 428.054C866.772 445.48 842.643 451.634 842.643 451.634C842.643 451.634 839.06 429.535 851.732 412.109C864.404 394.682 888.532 388.528 888.532 388.528C888.532 388.528 892.116 410.628 879.444 428.054Z" fill="#FF9F63"/>
</g>
</g>
<defs>
<clipPath id="clip0_3_2">
<rect width="1055.52" height="852.056" fill="white"/>
</clipPath>
</defs>
</svg>
