<svg width="1082" height="639" viewBox="0 0 1082 639" fill="none" xmlns="http://www.w3.org/2000/svg">
<g id="undraw_dark_alley_hl-3-o 1">
<g id="Group 1">
<path id="Vector" d="M545.128 508.565C548.861 510.297 555.318 513.576 555.318 507.41C555.318 504.82 553.492 504.615 551.761 503.945C545.26 501.203 539.707 496.068 535.946 489.321C529.152 477.659 527.582 466.015 527.582 452.062C527.582 421.174 564.179 415.586 564.179 384.679C564.179 372.85 557.77 369.385 557.77 366.05C557.77 363.926 558.347 363.926 560.173 363.926C566.791 363.926 575.988 376.743 578.793 383.003C580.357 386.25 581.049 389.968 580.779 393.677C580.779 400.421 580.203 407.351 580.203 414.17C580.203 440.158 606.609 433.228 606.609 420.709C606.609 414.934 603.629 409.531 603.629 403.942C603.629 403.272 603.629 402.787 604.222 402.787C607.026 402.787 611.993 410.239 613.403 412.512C618.21 421.081 620.437 432.538 620.437 442.729C620.437 473.914 596.018 489.898 596.018 496.642C596.018 497.592 598.421 504.094 606.032 498.505C630.628 483.974 650 452.677 650 412.065C650 379.724 642.79 356.53 623.417 332.554C620.213 328.605 609.846 316.291 604.798 316.291C598.004 316.291 610.759 334.194 610.759 346.321C610.841 347.901 610.633 349.484 610.15 350.963C609.667 352.443 608.919 353.786 607.955 354.905C606.992 356.023 605.835 356.891 604.562 357.451C603.288 358.01 601.927 358.249 600.568 358.151C590.954 358.151 588.567 333.709 587.413 326.109C582.606 293.563 576.806 270.09 548.957 254.777C540.353 249.97 518.737 243.413 518.737 252.671C518.737 254.982 520.98 256.602 522.551 257.571C530.162 262.955 538.782 278.175 538.782 294.345C538.782 338.721 491.001 379.24 491.001 425.44C490.841 464.227 514.267 495.319 545.063 508.416L545.128 508.565Z" fill="url(#paint0_linear_1_2)"/>
</g>
</g>
<defs>
<linearGradient id="paint0_linear_1_2" x1="570.5" y1="248" x2="570.5" y2="511" gradientUnits="userSpaceOnUse">
<stop stop-color="#F77423"/>
<stop offset="1" stop-color="#911515"/>
</linearGradient>
</defs>
</svg>
