<svg width="201" height="241" viewBox="0 0 201 241" fill="none" xmlns="http://www.w3.org/2000/svg">
<g id="undraw_super_woman_dv-0-y 1">
<g id="hand">
<path id="Vector" d="M89.094 123.576C89.094 123.576 88.4165 143.268 92.9899 142.815C97.5632 142.362 92.9899 124.255 92.9899 124.255L89.094 123.576Z" fill="#FBBEBE"/>
<path id="Vector_2" d="M95.9039 60.8596C95.9039 60.8596 94.5143 62.2381 94.0062 65.1805C93.498 68.1229 92.8205 91.6622 92.8205 91.6622C92.8205 91.6622 86.5533 124.029 87.9083 124.708C89.2634 125.387 93.1592 126.745 93.6674 126.066C94.1755 125.387 99.9346 97.9997 99.4264 95.0573C98.9183 92.1149 100.104 83.514 100.104 83.514L95.9039 60.8596Z" fill="#2F2E41"/>
</g>
<g id="cloth">
<path id="Vector_3" d="M104.254 41.9807C104.254 41.9807 78.4248 28.1032 56.0661 14.7492C56.0661 14.7492 44.3786 10.9014 38.2808 18.1442C38.2808 18.1442 43.3623 17.2389 43.3623 21.0866C43.3623 21.0866 47.7663 28.7822 34.0462 30.1402C24.4911 31.086 20.6868 38.7282 19.2576 43.2809C18.1418 46.9355 16.1803 50.0174 13.66 52.0758C10.3575 54.7133 5.57118 56.6536 0 53.2268C0 53.2268 0.316724 53.8774 0.917507 54.9616C11.6741 74.3721 51.7307 91.2652 65.8758 76.2285C74.6176 66.9358 88.4758 55.1904 98.4101 61.1064C113.993 70.3863 116.873 66.3122 116.873 66.3122L117.551 63.8225C117.551 63.8225 102.475 58.3903 102.137 51.3738C101.798 44.3573 104.254 41.9807 104.254 41.9807Z" fill="#6C63FF"/>
</g>
<g id="Group 1">
<path id="Vector_4" d="M68.9373 67.8966C68.9373 67.8966 93.498 84.193 97.902 81.9296C102.306 79.6662 103.83 59.522 103.83 59.522L85.7063 54.9952L68.9373 67.8966Z" fill="#6C63FF"/>
<path id="Vector_5" opacity="0.1" d="M68.9373 67.8966C68.9373 67.8966 93.498 84.193 97.902 81.9296C102.306 79.6662 103.83 59.522 103.83 59.522L85.7063 54.9952L68.9373 67.8966Z" fill="black"/>
<path id="Vector_6" d="M119.837 43.5651H103.746V62.3513H119.837V43.5651Z" fill="#FF6584"/>
<path id="Vector_7" opacity="0.1" d="M119.837 43.5651H103.746V62.3513H119.837V43.5651Z" fill="black"/>
<path id="Vector_8" d="M107.896 46.3943C107.896 46.3943 108.912 54.9952 107.049 56.1269C105.186 57.2586 104 58.164 104 58.164L108.234 62.0118L116.026 62.6908L118.059 60.6537L119.922 58.3903C119.922 58.3903 116.873 57.485 116.873 55.4479C116.873 53.4109 116.704 47.2997 116.704 47.2997L107.896 46.3943Z" fill="#FBBEBE"/>
<path id="Vector_9" opacity="0.1" d="M107.896 46.3943C107.896 46.3943 108.912 54.9952 107.049 56.1269C105.186 57.2586 104 58.164 104 58.164L108.234 62.0118L116.026 62.6908L118.059 60.6537L119.922 58.3903C119.922 58.3903 116.873 57.485 116.873 55.4479C116.873 53.4109 116.704 47.2997 116.704 47.2997L107.896 46.3943Z" fill="black"/>
<path id="Vector_10" d="M97.2245 126.971C97.2245 126.971 92.3123 148.021 92.3123 163.412C92.3123 163.412 84.1819 187.856 84.5206 199.852L82.488 216.375L85.3676 217.733L87.5696 215.243C87.5696 215.243 88.2471 206.416 90.4491 202.116C92.6511 197.815 97.7326 177.445 97.7326 177.445C97.7326 177.445 111.283 139.42 110.775 133.988C110.267 128.556 97.2245 126.971 97.2245 126.971Z" fill="#FBBEBE"/>
<path id="Vector_11" d="M127.205 122.218C127.205 122.218 130.424 124.255 125.85 160.469C125.85 160.469 128.391 184.461 126.189 197.589L125.85 210.717H122.293L121.616 209.359C121.616 209.359 121.446 197.589 120.261 194.42C119.075 191.251 118.059 172.918 118.059 172.918C118.059 172.918 112.638 135.572 113.824 132.403C115.01 129.234 127.205 122.218 127.205 122.218Z" fill="#FBBEBE"/>
<path id="Vector_12" d="M81.9799 212.527C81.9799 212.527 83.1656 216.149 85.3676 215.243C87.5696 214.338 88.0777 214.338 88.0777 214.338C88.0777 214.338 86.5533 224.75 87.0614 229.729C87.5696 234.709 86.7227 237.877 83.335 237.877C79.9473 237.877 79.4391 232.445 79.4391 232.445L80.9636 219.544L81.9799 212.527Z" fill="#2F2E41"/>
<path id="Vector_13" d="M120.938 206.869C120.938 206.869 122.124 210.038 123.987 209.359C125.85 208.68 126.528 207.548 126.528 207.548C126.528 207.548 126.358 214.564 127.036 217.733C127.714 220.902 129.238 229.955 125.681 230.408C124.704 230.567 123.715 230.3 122.861 229.648C122.006 228.995 121.332 227.992 120.938 226.787L120.938 206.869Z" fill="#2F2E41"/>
<path id="Vector_14" d="M112.469 52.2792C116.585 52.2792 119.922 47.8204 119.922 42.3203C119.922 36.8201 116.585 32.3613 112.469 32.3613C108.353 32.3613 105.016 36.8201 105.016 42.3203C105.016 47.8204 108.353 52.2792 112.469 52.2792Z" fill="#FBBEBE"/>
<path id="Vector_15" d="M126.189 60.201C126.189 60.201 120.286 57.1035 118.156 57.5206C117.238 58.5626 116.168 59.3389 115.015 59.8003C113.861 60.2617 112.648 60.3981 111.453 60.201C107.388 59.522 105.798 56.9151 105.798 56.9151C105.798 56.9151 94.8531 60.201 95.5306 61.5591C96.2082 62.9171 99.2571 85.0984 99.2571 85.0984C99.2571 85.0984 101.29 104.337 98.9183 110.901C96.5469 117.465 95.3612 128.329 96.3776 129.234C97.3939 130.14 108.743 134.214 110.098 135.346C111.453 136.477 111.961 132.63 112.808 133.309C113.655 133.988 115.518 135.119 116.704 134.214C117.889 133.309 129.407 125.16 129.069 123.576C128.73 121.992 124.326 102.753 122.801 98.905C121.277 95.0573 122.463 86.9091 123.31 85.3247C124.157 83.7403 125.85 81.9296 126.189 77.4028C126.528 72.876 126.189 60.201 126.189 60.201Z" fill="#2F2E41"/>
<path id="Vector_16" d="M127.205 102.979C127.205 102.979 118.059 96.868 117.042 100.942C116.026 105.016 126.697 109.317 126.697 109.317C126.697 109.317 130.424 107.506 130.424 106.374C130.424 105.243 127.205 102.979 127.205 102.979Z" fill="#FBBEBE"/>
<path id="Vector_17" d="M124.326 61.1064L126.189 60.201C126.189 60.201 127.205 59.2957 128.391 62.6908C129.577 66.0858 142.45 86.0037 140.079 92.3412C137.707 98.6787 129.916 111.58 129.577 110.675C129.238 109.769 125.342 102.979 126.02 102.3C126.697 101.621 134.489 92.3412 133.473 90.9832C132.456 89.6251 128.222 78.0818 125.85 77.6291C123.479 77.1764 124.326 61.1064 124.326 61.1064Z" fill="#2F2E41"/>
<path id="Vector_18" d="M119.329 43.7914C119.329 43.7914 122.971 45.7153 123.648 52.0528C123.648 52.0528 127.544 62.2381 123.14 64.7278C118.736 67.2175 117.889 66.5385 117.889 66.5385V65.4068C117.889 65.4068 122.632 61.5591 121.616 58.6167C120.599 55.6742 119.329 43.7914 119.329 43.7914Z" fill="#6C63FF"/>
<path id="Vector_19" d="M112.808 72.6497C112.808 72.6497 113.993 68.5756 113.655 68.5756C113.316 68.5756 115.033 66.0698 115.699 66.9832C116.365 67.8966 117.551 70.6126 116.195 71.2916C114.84 71.9706 112.808 72.6497 112.808 72.6497Z" fill="#6C63FF"/>
<path id="Vector_20" d="M121.156 70.2315C121.156 70.2315 118.059 68.8207 118.074 69.273C118.088 69.7253 116.142 67.5391 116.797 66.6113C117.451 65.6835 119.432 63.9857 119.997 65.7661C120.562 67.5465 121.156 70.2315 121.156 70.2315Z" fill="#6C63FF"/>
<path id="Vector_21" d="M116.195 64.0488C116.195 64.0488 117.742 62.8889 118.663 64.7137C119.583 66.5386 117.551 69.7073 116.195 69.7073C114.84 69.7073 114.84 65.8595 114.84 65.8595L116.195 64.0488Z" fill="#6C63FF"/>
<path id="Vector_22" opacity="0.1" d="M116.195 64.0488C116.195 64.0488 117.742 62.8889 118.663 64.7137C119.583 66.5386 117.551 69.7073 116.195 69.7073C114.84 69.7073 114.84 65.8595 114.84 65.8595L116.195 64.0488Z" fill="black"/>
<g id="hair">
<path id="Vector_23" d="M106.007 26.0686C105.114 27.0524 104.267 28.1548 103.712 29.5117C103.421 30.2727 103.177 31.0647 102.984 31.8795C102.299 34.5137 100.596 37.1815 101.317 39.7986C101.523 40.5454 101.843 41.3328 101.659 42.0894C101.495 42.7614 100.99 43.1535 100.625 43.6643C99.8401 44.7606 99.7082 46.4055 99.6603 47.9209C99.5725 50.6961 100.715 53.9666 102.094 56.0441C102.394 56.4349 102.672 56.8548 102.925 57.3003C103.096 57.6555 103.207 58.0557 103.252 58.4736C103.297 58.8916 103.274 59.3175 103.185 59.7226L105.195 59.162C105.268 60.1537 105.29 61.1507 105.263 62.1464C105.74 62.2164 106.22 62.0648 106.622 61.717C107.025 61.3692 107.326 60.8466 107.474 60.2371C107.588 60.9472 107.773 61.6331 108.026 62.276C108.616 61.2906 109.068 60.1714 109.361 58.9721C109.746 57.4359 109.828 55.7933 109.601 54.2022C109.388 53.0401 109.098 51.9055 108.735 50.8118C108.025 48.4132 107.445 45.95 106.866 43.4894C106.565 42.2114 106.26 40.8918 106.351 39.5577L107.066 39.4538C107.074 38.9268 107.15 38.4057 107.291 37.9135C107.71 38.0319 108.113 38.2344 108.486 38.5143L109.309 35.7224C109.853 36.4755 110.632 36.8164 111.379 37.1306L114.218 38.3248L114.235 37.5742C115.433 38.9914 116.798 40.1352 118.274 40.9597C118.191 40.8251 118.13 40.6684 118.095 40.4999C118.061 40.3314 118.054 40.1551 118.074 39.9827C118.774 41.6571 118.494 43.743 118.063 45.5718C117.631 47.4006 117.058 49.2625 117.232 51.1659C117.362 52.5896 117.908 53.9511 117.807 55.3789C117.757 56.082 117.551 56.7511 117.487 57.4522C117.334 59.1242 117.992 60.7164 118.627 62.1715L119.862 59.9053C120.314 59.0759 120.78 58.2285 121.42 57.6616C122.077 57.0796 122.891 56.8184 123.464 56.0945C124.485 54.8022 124.356 52.6007 124.023 50.7738C123.847 49.8027 123.633 48.8178 123.698 47.8221C123.808 46.1343 124.686 44.7378 125.18 43.1776C125.532 42.04 125.685 40.8098 125.627 39.5811C125.568 38.3524 125.299 37.158 124.842 36.0895C124.229 34.6835 123.302 33.5513 122.724 32.1189C122.148 30.693 121.929 28.9964 121.14 27.7658C120.755 27.2058 120.307 26.7291 119.813 26.3527C117.572 24.5537 115.055 23.4565 112.452 23.1436C109.983 22.7986 107.899 23.9844 106.007 26.0686Z" fill="black"/>
</g>
</g>
</g>
</svg>
