<svg width="835" height="541" viewBox="0 0 835 541" fill="none" xmlns="http://www.w3.org/2000/svg">
<g id="undraw_tree_swing_re_pqee 1">
<g id="sky">
<path id="Vector" d="M799.763 109.497C798.21 104.737 795.203 100.506 791.111 97.3245C787.019 94.1427 782.022 92.1492 776.734 91.5892C776.61 91.5796 776.486 91.5796 776.363 91.5892C776.214 91.5459 776.063 91.5136 775.909 91.4928C757.477 89.2568 736.984 94.6927 723.191 106.528C718.071 110.853 713.977 116.132 711.172 122.026C708.615 118.761 705.245 116.128 701.355 114.354C697.464 112.581 693.17 111.721 688.844 111.848C683.264 112.193 677.934 114.139 673.581 117.419C669.227 120.7 666.062 125.156 664.516 130.18C664.346 130.794 664.392 131.443 664.649 132.03C664.905 132.617 665.357 133.111 665.938 133.438C667.596 134.764 669.568 135.702 671.69 136.175C676.247 137.081 680.844 137.91 685.442 138.662C694.431 140.127 703.468 141.315 712.553 142.228C718.553 142.825 724.566 143.301 730.593 143.654C743.046 144.387 755.56 144.56 768.033 144.194C774.218 144.001 780.156 143.808 785.805 141.264C789.921 139.371 793.439 136.508 796.01 132.956C798.431 129.539 800.022 125.669 800.67 121.615C801.318 117.562 801.009 113.426 799.763 109.497Z" fill="#E6E6E6" fill-opacity="0.66"/>
<path id="Vector_2" d="M686.514 184.481C686.409 182.324 686.022 180.188 685.359 178.12C683.799 173.361 680.787 169.131 676.693 165.95C672.598 162.769 667.599 160.775 662.31 160.212C662.193 160.203 662.076 160.203 661.959 160.212C661.803 160.171 661.645 160.139 661.485 160.116C651.284 158.948 640.932 159.942 631.199 163.027C616.231 167.711 603.098 177.156 596.768 190.649C594.209 187.382 590.836 184.747 586.941 182.974C583.047 181.2 578.749 180.341 574.42 180.472C568.84 180.816 563.51 182.762 559.157 186.042C554.803 189.323 551.637 193.779 550.092 198.803C549.931 199.417 549.982 200.063 550.238 200.648C550.493 201.233 550.94 201.727 551.514 202.061C553.175 203.383 555.145 204.321 557.266 204.798C561.843 205.704 566.42 206.533 571.038 207.285C580.027 208.75 589.058 209.938 598.129 210.851C616.559 212.701 635.103 213.358 653.63 212.817C659.794 212.624 665.753 212.431 671.402 209.887C675.512 207.993 679.023 205.13 681.586 201.579C685.2 196.544 686.933 190.532 686.514 184.481Z" fill="#E6E6E6" fill-opacity="0.66"/>
</g>
<g id="bird">
<path id="Vector_3" d="M616.365 281.949C615.531 284.449 616.116 287.073 618 289.287C619.103 290.412 620.719 291.254 622.594 291.68C624.469 292.106 626.496 292.093 628.359 291.641C635.672 290.081 642.888 288.254 650.139 286.561C651.129 286.357 651.966 285.898 652.477 285.281C652.987 284.663 653.131 283.935 652.879 283.246C652.594 282.561 651.929 281.979 651.026 281.627C650.124 281.275 649.057 281.181 648.054 281.364L629.934 285.594C628.567 285.913 627.205 286.276 625.812 286.538C625.666 286.566 625.134 286.646 625.163 286.644C625.23 286.64 625.643 286.67 625.184 286.649C624.923 286.595 624.925 286.606 625.19 286.684L624.843 286.548C625.159 286.729 624.805 286.524 624.696 286.448C624.6 286.381 624.317 286.114 624.536 286.334C624.378 286.177 624.241 286.011 624.125 285.839C624.316 286.13 623.957 285.409 623.931 285.31C623.785 284.186 623.878 283.054 624.209 281.949C624.204 281.236 623.79 280.552 623.055 280.048C622.321 279.543 621.326 279.258 620.287 279.255C619.255 279.272 618.272 279.562 617.542 280.063C616.812 280.565 616.39 281.24 616.365 281.949Z" fill="#3F3D56"/>
<path id="Vector_4" d="M324.335 291.412L343.667 308.159C346.127 310.29 351.401 307.983 350.223 305.537C347.813 300.535 356.131 297.748 361.872 296.925C369.49 295.832 377.134 296.009 384.362 293.76C388.954 292.331 384.971 287.685 380.403 289.106C371.947 291.737 362.088 290.531 353.526 293.091C345.873 295.378 339.822 301.083 342.658 306.97L349.214 304.348L329.882 287.601C329.143 287.1 328.147 286.819 327.109 286.819C326.07 286.819 325.074 287.1 324.335 287.601C323.621 288.114 323.223 288.797 323.223 289.506C323.223 290.216 323.621 290.899 324.335 291.412Z" fill="#3F3D56"/>
<path id="Vector_5" d="M285.113 95.5925L304.444 112.34C306.905 114.471 312.178 112.164 311 109.718C308.59 104.716 316.908 101.929 322.65 101.105C330.267 100.013 337.911 100.19 345.14 97.9405C349.731 96.5116 345.748 91.8654 341.18 93.2868C332.725 95.9181 322.866 94.7118 314.304 97.2713C306.651 99.559 300.6 105.264 303.436 111.151L309.991 108.529L290.659 91.7816C289.92 91.2808 288.924 91 287.886 91C286.848 91 285.851 91.2808 285.112 91.7816C284.398 92.2947 284 92.9772 284 93.6871C284 94.3969 284.399 95.0794 285.113 95.5925Z" fill="#3F3D56"/>
</g>
</g>
</svg>
