<svg width="174" height="182" viewBox="0 0 174 182" fill="none" xmlns="http://www.w3.org/2000/svg">
<g id="undraw_walking_in_rain_vo9p 1" clip-path="url(#clip0_1_2)">
<path id="Vector" d="M90.1975 54.5795C90.1975 54.5795 88.1101 51.0211 79.2327 51.5286L77.1453 56.105C77.1453 56.105 70.8797 57.6304 70.8797 66.7832C70.8797 75.936 74.0125 103.398 74.0125 103.398L104.561 101.617L90.4306 58.6043L90.2008 54.5763L90.1975 54.5795Z" fill="#CCCCCC"/>
<g id="Group 1">
<path id="Vector_2" d="M62.8132 -0.00489874L61.7028 0.643097L120.32 95.9122L121.43 95.2642L62.8132 -0.00489874Z" fill="#000019"/>
<path id="Vector_3" d="M79.3072 56.2783L87 58.743V47.9576H80.0192L79.3072 56.2783Z" fill="#F3A3A6"/>
<path id="Vector_4" d="M86.0485 50.9423C90.2829 50.9423 93.7155 47.5994 93.7155 43.4757C93.7155 39.3521 90.2829 36.0092 86.0485 36.0092C81.8142 36.0092 78.3816 39.3521 78.3816 43.4757C78.3816 47.5994 81.8142 50.9423 86.0485 50.9423Z" fill="#F3A3A6"/>
<path id="Vector_5" d="M84.097 44.062L85.152 45.3101L87.0647 42.0511C87.0647 42.0511 89.5049 42.1741 89.5049 40.4091C89.5049 38.6441 91.7445 38.5968 91.7445 38.5968C91.7445 38.5968 94.9129 33.2072 88.3496 34.6287C88.3496 34.6287 83.796 31.5903 81.5338 34.1874C81.5338 34.1874 74.5918 37.5914 76.5789 43.5199L79.88 49.6312L80.6276 48.2475C80.6276 48.2475 80.1745 42.442 84.1002 44.0588L84.097 44.062Z" fill="#2F2E43"/>
<path id="Vector_6" d="M90.7218 175.958H97.4988V166.594H90.7218V175.958Z" fill="#F3A3A6"/>
<path id="Vector_7" d="M96.7479 181.322C95.5893 181.423 89.7898 181.871 89.4985 180.575C89.2331 179.387 89.6247 178.145 89.6797 177.975C90.2364 172.573 90.4435 172.513 90.5697 172.478C90.7671 172.422 91.3432 172.69 92.2785 173.276L92.3368 173.314L92.3497 173.38C92.3659 173.465 92.7802 175.447 94.7446 175.142C96.091 174.934 96.5279 174.644 96.667 174.502C96.5538 174.451 96.4114 174.363 96.311 174.212C96.1654 173.991 96.1395 173.708 96.2366 173.367C96.489 172.469 97.2463 171.142 97.2787 171.088L97.3661 170.937L105.069 175.999L109.826 177.323C110.185 177.424 110.473 177.673 110.619 178.007C110.82 178.473 110.697 179.015 110.308 179.356C109.444 180.112 107.729 181.407 105.926 181.568C105.447 181.612 104.813 181.628 104.101 181.628C101.127 181.628 96.7835 181.329 96.7512 181.322H96.7479Z" fill="#2F2E43"/>
<path id="Vector_8" d="M63.2528 161.941L68.6293 165.959L74.4827 158.53L69.1062 154.512L63.2528 161.941Z" fill="#F3A3A6"/>
<path id="Vector_9" d="M64.6755 169.768C63.6917 169.163 58.8112 166.077 59.3906 164.879C59.9213 163.78 61.0087 163.023 61.1609 162.925C64.9798 158.97 65.1804 159.046 65.3034 159.09C65.4976 159.162 65.7856 159.714 66.161 160.735L66.1837 160.798L66.1513 160.858C66.1125 160.933 65.2031 162.755 66.9475 163.675C68.1449 164.309 68.6725 164.337 68.8731 164.309C68.8149 164.202 68.7566 164.047 68.7728 163.868C68.7954 163.606 68.9508 163.367 69.2421 163.152C70.0026 162.591 71.4331 161.986 71.4946 161.961L71.6564 161.892L74.6047 170.474L77.5531 174.344C77.7764 174.637 77.8476 175.006 77.7537 175.359C77.621 175.851 77.1841 176.207 76.6631 176.245C75.5044 176.333 73.3328 176.343 71.8053 175.403C71.4007 175.154 70.8861 174.792 70.3198 174.37C67.9605 172.605 64.7014 169.793 64.6788 169.771L64.6755 169.768Z" fill="#2F2E43"/>
<path id="Vector_10" d="M0 181.625C0 181.833 0.171527 182 0.385128 182H173.615C173.828 182 174 181.833 174 181.625C174 181.417 173.828 181.25 173.615 181.25H0.385128C0.171527 181.25 0 181.417 0 181.625Z" fill="#2F2E43"/>
<path id="Vector_11" d="M101.687 99.3318L76.0999 101.875C76.0999 101.875 72.4461 113.572 77.6663 119.166L80.7991 134.931L66.7015 153.747L75.5789 159.342L88.1101 146.12V168.495L100.12 167.477L105.865 132.388L101.687 99.3318Z" fill="#2F2E43"/>
<g id="umbrella">
<path id="Vector_12" d="M59.2352 14.9521C58.1543 21.9175 58.6494 29.1005 60.6398 35.8674L94.2397 18.6365C93.654 17.9589 93.0552 17.2939 92.4306 16.6509C87.3916 11.4725 81.1163 7.46344 74.2293 5.04602C71.6985 6.10502 69.0705 7.37204 66.3487 8.88805C63.8891 10.2559 61.6366 11.6459 59.5718 13.0453C59.4456 13.6788 59.3323 14.3123 59.2352 14.9489V14.9521Z" fill="#6C63FF"/>
<path id="Vector_13" d="M78.2844 5.64169C82.1681 7.37517 85.7993 9.62555 89.0777 12.292C91.272 14.0759 93.2915 16.0552 95.1168 18.1921L117.318 6.80785C117.318 6.80785 101.897 -5.89385 75.5303 4.5228C76.4591 4.8695 77.3783 5.24141 78.2812 5.64484L78.2844 5.64169Z" fill="#6C63FF"/>
<path id="Vector_14" d="M59.0087 33.5035C57.4973 27.0581 57.3096 20.3322 58.4488 13.8237C34.8945 30.3643 37.1405 47.9198 37.1405 47.9198L59.766 36.318C59.4876 35.3883 59.2287 34.4522 59.0054 33.5066L59.0087 33.5035Z" fill="#6C63FF"/>
</g>
<path id="uuid-215a2cca-fbee-4bbc-9bf2-8b7e67129ed8-357" d="M117.966 87.0492C119.962 87.9443 121.079 89.703 120.461 90.9795C119.843 92.256 117.72 92.5649 115.723 91.6729C114.92 91.3262 114.218 90.7936 113.677 90.1128L105.266 86.2172L107.337 82.29L115.412 86.5481C116.299 86.5103 117.179 86.6805 117.972 87.0492H117.966Z" fill="#F3A3A6"/>
<path id="Vector_15" d="M112.755 89.9205L92.45 83.4625L92.4274 83.4404L76.9608 69.5032C74.5918 67.3695 74.2358 63.8426 76.1355 61.2991C77.2974 59.7421 79.0968 58.8123 81.071 58.7462C83.0452 58.68 84.9061 59.49 86.1747 60.965L97.79 74.4736L114.519 85.0573L112.755 89.9205Z" fill="#CCCCCC"/>
</g>
</g>
<defs>
<clipPath id="clip0_1_2">
<rect width="174" height="182" fill="white"/>
</clipPath>
</defs>
</svg>
