<svg width="32768" height="25647" viewBox="0 0 32768 25647" fill="none" xmlns="http://www.w3.org/2000/svg">
<g id="undraw_raining_re_4b55 1">
<g id="Group 1">
<path id="Vector" d="M2462.85 11065.2C2341.62 11522.3 2188.48 11631.1 2043.44 11600C1898.4 11568.8 1816.38 11409.4 1937.61 10952.2C2058.84 10495.1 2482.45 9944.42 2482.45 9944.42C2482.45 9944.42 2584.08 10608 2462.85 11065.2Z" fill="#CCCCCC"/>
<path id="Vector_2" d="M2138.27 19030.4C2017.04 19487.5 1863.9 19596.4 1718.86 19565.2C1573.82 19534 1491.8 19374.6 1613.03 18917.4C1734.26 18460.3 2157.87 17909.6 2157.87 17909.6C2157.87 17909.6 2259.5 18573.2 2138.27 19030.4Z" fill="#CCCCCC"/>
<path id="Vector_3" d="M2668.94 15773.9C2594.96 16052.9 2501.52 16119.3 2413.01 16100.3C2324.51 16081.2 2274.46 15984 2348.44 15705C2422.41 15426 2680.89 15090.1 2680.89 15090.1C2680.89 15090.1 2742.91 15495 2668.94 15773.9Z" fill="#CCCCCC"/>
<path id="Vector_4" d="M356.307 17125.8C282.334 17404.8 188.889 17471.2 100.385 17452.1C11.8819 17433.1 -38.1662 17335.9 35.8066 17056.9C109.779 16777.9 368.266 16442 368.266 16442C368.266 16442 430.28 16846.9 356.307 17125.8Z" fill="#CCCCCC"/>
<path id="Vector_5" d="M17352.9 3940.32C17231.7 4397.49 17078.6 4506.3 16933.5 4475.11C16788.5 4443.92 16706.5 4284.53 16827.7 3827.37C16948.9 3370.21 17372.5 2819.58 17372.5 2819.58C17372.5 2819.58 17474.2 3483.16 17352.9 3940.32Z" fill="#CCCCCC"/>
<path id="Vector_6" d="M17883.6 683.876C17809.6 962.835 17716.2 1029.23 17627.7 1010.2C17539.2 991.164 17489.1 893.907 17563.1 614.949C17637.1 335.99 17895.5 0 17895.5 0C17895.5 0 17957.6 404.92 17883.6 683.876Z" fill="#CCCCCC"/>
<path id="Vector_7" d="M15571 2035.77C15497 2314.73 15403.5 2381.12 15315 2362.09C15226.5 2343.06 15176.5 2245.8 15250.5 1966.84C15324.4 1687.88 15582.9 1351.89 15582.9 1351.89C15582.9 1351.89 15644.9 1756.81 15571 2035.77Z" fill="#CCCCCC"/>
<path id="Vector_8" d="M10942.5 18263.1C10821.3 18720.3 10668.1 18829.1 10523.1 18797.9C10378 18766.7 10296 18607.3 10417.2 18150.1C10538.5 17693 10962.1 17142.3 10962.1 17142.3C10962.1 17142.3 11063.7 17805.9 10942.5 18263.1Z" fill="#CCCCCC"/>
<path id="Vector_9" d="M11473.1 15006.6C11399.2 15285.6 11305.7 15352 11217.2 15333C11128.7 15313.9 11078.7 15216.7 11152.6 14937.7C11226.6 14658.8 11485.1 14322.8 11485.1 14322.8C11485.1 14322.8 11547.1 14727.7 11473.1 15006.6Z" fill="#CCCCCC"/>
<path id="Vector_10" d="M9160.52 16358.5C9086.55 16637.5 8993.1 16703.9 8904.6 16684.9C8816.1 16665.8 8766.05 16568.6 8840.02 16289.6C8913.99 16010.6 9172.48 15674.7 9172.48 15674.7C9172.48 15674.7 9234.49 16079.6 9160.52 16358.5Z" fill="#CCCCCC"/>
<path id="Vector_11" d="M8548.71 4634.54C8427.48 5091.7 8274.34 5200.52 8129.3 5169.32C7984.26 5138.13 7902.24 4978.75 8023.47 4521.59C8144.7 4064.42 8568.31 3513.79 8568.31 3513.79C8568.31 3513.79 8669.94 4177.38 8548.71 4634.54Z" fill="#CCCCCC"/>
<path id="Vector_12" d="M8224.14 12599.8C8102.9 13056.9 7949.77 13165.7 7804.72 13134.5C7659.68 13103.3 7577.66 12944 7698.89 12486.8C7820.12 12029.6 8243.73 11479 8243.73 11479C8243.73 11479 8345.36 12142.6 8224.14 12599.8Z" fill="#CCCCCC"/>
<path id="Vector_13" d="M8754.8 9343.3C8680.82 9622.26 8587.38 9688.66 8498.88 9669.62C8410.37 9650.59 8360.32 9553.33 8434.3 9274.38C8508.27 8995.42 8766.75 8659.43 8766.75 8659.43C8766.75 8659.43 8828.77 9064.35 8754.8 9343.3Z" fill="#CCCCCC"/>
<path id="Vector_14" d="M6442.17 10695.2C6368.2 10974.2 6274.75 11040.6 6186.25 11021.5C6097.74 11002.5 6047.7 10905.2 6121.67 10626.3C6195.64 10347.3 6454.13 10011.3 6454.13 10011.3C6454.13 10011.3 6516.14 10416.2 6442.17 10695.2Z" fill="#CCCCCC"/>
<path id="Vector_15" d="M14756.3 4963.38C14635.1 5420.54 14481.9 5529.36 14336.9 5498.16C14191.8 5466.97 14109.8 5307.59 14231.1 4850.42C14352.3 4393.26 14775.9 3842.63 14775.9 3842.63C14775.9 3842.63 14877.5 4506.21 14756.3 4963.38Z" fill="#CCCCCC"/>
<path id="Vector_16" d="M14431.7 12928.6C14310.5 13385.8 14157.3 13494.6 14012.3 13463.4C13867.3 13432.2 13785.2 13272.8 13906.5 12815.6C14027.7 12358.5 14451.3 11807.8 14451.3 11807.8C14451.3 11807.8 14552.9 12471.4 14431.7 12928.6Z" fill="#CCCCCC"/>
<path id="Vector_17" d="M14431.7 12928.6C14310.5 13385.8 14157.3 13494.6 14012.3 13463.4C13867.3 13432.2 13785.2 13272.8 13906.5 12815.6C14027.7 12358.5 14451.3 11807.8 14451.3 11807.8C14451.3 11807.8 14552.9 12471.4 14431.7 12928.6Z" fill="#CCCCCC"/>
<path id="Vector_18" d="M14962.4 9672.14C14888.4 9951.1 14795 10017.5 14706.5 9998.46C14617.9 9979.43 14567.9 9882.17 14641.9 9603.22C14715.8 9324.26 14974.3 8988.27 14974.3 8988.27C14974.3 8988.27 15036.3 9393.19 14962.4 9672.14Z" fill="#CCCCCC"/>
<path id="Vector_19" d="M20517.6 6497.96C20396.3 6955.13 20243.2 7063.94 20098.2 7032.75C19953.1 7001.55 19871.1 6842.17 19992.3 6385.01C20113.6 5927.84 20537.2 5377.21 20537.2 5377.21C20537.2 5377.21 20638.8 6040.8 20517.6 6497.96Z" fill="#CCCCCC"/>
<path id="Vector_20" d="M18735.6 4593.41C18661.6 4872.37 18568.2 4938.76 18479.7 4919.73C18391.2 4900.7 18341.1 4803.44 18415.1 4524.48C18489.1 4245.52 18747.6 3909.53 18747.6 3909.53C18747.6 3909.53 18809.6 4314.45 18735.6 4593.41Z" fill="#CCCCCC"/>
<path id="Vector_21" d="M23398.2 4342.24C23277 4799.4 23123.8 4908.22 22978.8 4877.02C22833.8 4845.83 22751.7 4686.45 22873 4229.28C22994.2 3772.12 23417.8 3221.49 23417.8 3221.49C23417.8 3221.49 23519.4 3885.07 23398.2 4342.24Z" fill="#CCCCCC"/>
<path id="Vector_22" d="M23073.6 12307.5C22952.4 12764.6 22799.3 12873.4 22654.2 12842.2C22509.2 12811 22427.2 12651.7 22548.4 12194.5C22669.6 11737.3 23093.2 11186.7 23093.2 11186.7C23093.2 11186.7 23194.9 11850.3 23073.6 12307.5Z" fill="#CCCCCC"/>
<path id="Vector_23" d="M23604.3 9051C23530.3 9329.96 23436.9 9396.36 23348.4 9377.32C23259.9 9358.29 23209.8 9261.03 23283.8 8982.07C23357.8 8703.12 23616.3 8367.13 23616.3 8367.13C23616.3 8367.13 23678.3 8772.05 23604.3 9051Z" fill="#CCCCCC"/>
<path id="Vector_24" d="M29159.5 5876.82C29038.3 6333.98 28885.1 6442.8 28740.1 6411.6C28595 6380.41 28513 6221.03 28634.3 5763.86C28755.5 5306.7 29179.1 4756.07 29179.1 4756.07C29179.1 4756.07 29280.7 5419.65 29159.5 5876.82Z" fill="#CCCCCC"/>
<path id="Vector_25" d="M27377.5 3972.27C27303.6 4251.22 27210.1 4317.62 27121.6 4298.59C27033.1 4279.55 26983.1 4182.3 27057 3903.34C27131 3624.38 27389.5 3288.39 27389.5 3288.39C27389.5 3288.39 27451.5 3693.31 27377.5 3972.27Z" fill="#CCCCCC"/>
<path id="Vector_26" d="M26765.7 9567.13C26644.5 10024.3 26491.4 10133.1 26346.3 10101.9C26201.3 10070.7 26119.3 9911.33 26240.5 9454.17C26361.7 8997.01 26785.3 8446.38 26785.3 8446.38C26785.3 8446.38 26887 9109.96 26765.7 9567.13Z" fill="#CCCCCC"/>
<path id="Vector_27" d="M26441.1 17532.3C26319.9 17989.5 26166.8 18098.3 26021.7 18067.1C25876.7 18035.9 25794.7 17876.5 25915.9 17419.4C26037.1 16962.2 26460.7 16411.6 26460.7 16411.6C26460.7 16411.6 26562.4 17075.2 26441.1 17532.3Z" fill="#CCCCCC"/>
<path id="Vector_28" d="M26971.8 14275.9C26897.8 14554.8 26804.4 14621.2 26715.9 14602.2C26627.4 14583.2 26577.3 14485.9 26651.3 14207C26725.3 13928 26983.8 13592 26983.8 13592C26983.8 13592 27045.8 13996.9 26971.8 14275.9Z" fill="#CCCCCC"/>
<path id="Vector_29" d="M32527 11101.7C32405.8 11558.9 32252.6 11667.7 32107.6 11636.5C31962.6 11605.3 31880.5 11445.9 32001.8 10988.8C32123 10531.6 32546.6 9980.96 32546.6 9980.96C32546.6 9980.96 32648.2 10644.5 32527 11101.7Z" fill="#CCCCCC"/>
<path id="Vector_30" d="M30745 9197.15C30671.1 9476.11 30577.6 9542.51 30489.1 9523.47C30400.6 9504.44 30350.6 9407.18 30424.5 9128.22C30498.5 8849.27 30757 8513.27 30757 8513.27C30757 8513.27 30819 8918.2 30745 9197.15Z" fill="#CCCCCC"/>
<path id="Vector_31" d="M14431.7 12928.6C14310.5 13385.8 14157.3 13494.6 14012.3 13463.4C13867.3 13432.2 13785.2 13272.8 13906.5 12815.6C14027.7 12358.5 14451.3 11807.8 14451.3 11807.8C14451.3 11807.8 14552.9 12471.4 14431.7 12928.6Z" fill="#CCCCCC"/>
</g>
</g>
</svg>
