<svg width="808" height="702" viewBox="0 0 808 702" fill="none" xmlns="http://www.w3.org/2000/svg">
<g id="undraw_raining_re_4b55 1">
<g id="Group 1">
<path id="Vector" d="M60.7026 302.843C57.7146 315.355 53.9402 318.333 50.3653 317.479C46.7904 316.626 44.7688 312.263 47.7568 299.751C50.7448 287.239 61.1857 272.169 61.1857 272.169C61.1857 272.169 63.6906 290.331 60.7026 302.843Z" fill="#CCCCCC"/>
<path id="Vector_2" d="M52.7026 520.843C49.7146 533.355 45.9402 536.333 42.3653 535.479C38.7904 534.626 36.7688 530.263 39.7568 517.751C42.7448 505.239 53.1857 490.169 53.1857 490.169C53.1857 490.169 55.6906 508.331 52.7026 520.843Z" fill="#CCCCCC"/>
<path id="Vector_3" d="M65.782 431.717C63.9588 439.352 61.6556 441.169 59.4743 440.648C57.2929 440.127 56.0593 437.465 57.8826 429.831C59.7058 422.196 66.0768 413 66.0768 413C66.0768 413 67.6053 424.082 65.782 431.717Z" fill="#CCCCCC"/>
<path id="Vector_4" d="M8.782 468.717C6.95876 476.352 4.6556 478.169 2.47423 477.648C0.292857 477.127 -0.940693 474.465 0.882537 466.831C2.70577 459.196 9.07675 450 9.07675 450C9.07675 450 10.6052 461.082 8.782 468.717Z" fill="#CCCCCC"/>
<path id="Vector_5" d="M427.703 107.843C424.715 120.355 420.94 123.333 417.365 122.479C413.79 121.626 411.769 117.263 414.757 104.751C417.745 92.2393 428.186 77.169 428.186 77.169C428.186 77.169 430.691 95.3306 427.703 107.843Z" fill="#CCCCCC"/>
<path id="Vector_6" d="M440.782 18.717C438.959 26.3518 436.656 28.169 434.474 27.6481C432.293 27.1272 431.059 24.4654 432.883 16.8305C434.706 9.19572 441.077 0 441.077 0C441.077 0 442.605 11.0823 440.782 18.717Z" fill="#CCCCCC"/>
<path id="Vector_7" d="M383.782 55.717C381.959 63.3518 379.656 65.169 377.474 64.6481C375.293 64.1272 374.059 61.4654 375.883 53.8305C377.706 46.1957 384.077 37 384.077 37C384.077 37 385.605 48.0823 383.782 55.717Z" fill="#CCCCCC"/>
<path id="Vector_8" d="M269.703 499.843C266.715 512.355 262.94 515.333 259.365 514.479C255.79 513.626 253.769 509.263 256.757 496.751C259.745 484.239 270.186 469.169 270.186 469.169C270.186 469.169 272.691 487.331 269.703 499.843Z" fill="#CCCCCC"/>
<path id="Vector_9" d="M282.782 410.717C280.959 418.352 278.656 420.169 276.474 419.648C274.293 419.127 273.059 416.465 274.883 408.831C276.706 401.196 283.077 392 283.077 392C283.077 392 284.605 403.082 282.782 410.717Z" fill="#CCCCCC"/>
<path id="Vector_10" d="M225.782 447.717C223.959 455.352 221.656 457.169 219.474 456.648C217.293 456.127 216.059 453.465 217.883 445.831C219.706 438.196 226.077 429 226.077 429C226.077 429 227.605 440.082 225.782 447.717Z" fill="#CCCCCC"/>
<path id="Vector_11" d="M210.703 126.843C207.715 139.355 203.94 142.333 200.365 141.479C196.79 140.626 194.769 136.263 197.757 123.751C200.745 111.239 211.186 96.169 211.186 96.169C211.186 96.169 213.691 114.331 210.703 126.843Z" fill="#CCCCCC"/>
<path id="Vector_12" d="M202.703 344.843C199.715 357.355 195.94 360.333 192.365 359.479C188.79 358.626 186.769 354.263 189.757 341.751C192.745 329.239 203.186 314.169 203.186 314.169C203.186 314.169 205.691 332.331 202.703 344.843Z" fill="#CCCCCC"/>
<path id="Vector_13" d="M215.782 255.717C213.959 263.352 211.656 265.169 209.474 264.648C207.293 264.127 206.059 261.465 207.883 253.831C209.706 246.196 216.077 237 216.077 237C216.077 237 217.605 248.082 215.782 255.717Z" fill="#CCCCCC"/>
<path id="Vector_14" d="M158.782 292.717C156.959 300.352 154.656 302.169 152.474 301.648C150.293 301.127 149.059 298.465 150.883 290.831C152.706 283.196 159.077 274 159.077 274C159.077 274 160.605 285.082 158.782 292.717Z" fill="#CCCCCC"/>
<path id="Vector_15" d="M363.703 135.843C360.715 148.355 356.94 151.333 353.365 150.479C349.79 149.626 347.769 145.263 350.757 132.751C353.745 120.239 364.186 105.169 364.186 105.169C364.186 105.169 366.691 123.331 363.703 135.843Z" fill="#CCCCCC"/>
<path id="Vector_16" d="M355.703 353.843C352.715 366.355 348.94 369.333 345.365 368.479C341.79 367.626 339.769 363.263 342.757 350.751C345.745 338.239 356.186 323.169 356.186 323.169C356.186 323.169 358.691 341.331 355.703 353.843Z" fill="#CCCCCC"/>
<path id="Vector_17" d="M355.703 353.843C352.715 366.355 348.94 369.333 345.365 368.479C341.79 367.626 339.769 363.263 342.757 350.751C345.745 338.239 356.186 323.169 356.186 323.169C356.186 323.169 358.691 341.331 355.703 353.843Z" fill="#CCCCCC"/>
<path id="Vector_18" d="M368.782 264.717C366.959 272.352 364.656 274.169 362.474 273.648C360.293 273.127 359.059 270.465 360.883 262.831C362.706 255.196 369.077 246 369.077 246C369.077 246 370.605 257.082 368.782 264.717Z" fill="#CCCCCC"/>
<path id="Vector_19" d="M505.703 177.843C502.715 190.355 498.94 193.333 495.365 192.479C491.79 191.626 489.769 187.263 492.757 174.751C495.745 162.239 506.186 147.169 506.186 147.169C506.186 147.169 508.691 165.331 505.703 177.843Z" fill="#CCCCCC"/>
<path id="Vector_20" d="M461.782 125.717C459.959 133.352 457.656 135.169 455.474 134.648C453.293 134.127 452.059 131.465 453.883 123.831C455.706 116.196 462.077 107 462.077 107C462.077 107 463.605 118.082 461.782 125.717Z" fill="#CCCCCC"/>
<path id="Vector_21" d="M576.703 118.843C573.715 131.355 569.94 134.333 566.365 133.479C562.79 132.626 560.769 128.263 563.757 115.751C566.745 103.239 577.186 88.169 577.186 88.169C577.186 88.169 579.691 106.331 576.703 118.843Z" fill="#CCCCCC"/>
<path id="Vector_22" d="M568.703 336.843C565.715 349.355 561.94 352.333 558.365 351.479C554.79 350.626 552.769 346.263 555.757 333.751C558.745 321.239 569.186 306.169 569.186 306.169C569.186 306.169 571.691 324.331 568.703 336.843Z" fill="#CCCCCC"/>
<path id="Vector_23" d="M581.782 247.717C579.959 255.352 577.656 257.169 575.474 256.648C573.293 256.127 572.059 253.465 573.883 245.831C575.706 238.196 582.077 229 582.077 229C582.077 229 583.605 240.082 581.782 247.717Z" fill="#CCCCCC"/>
<path id="Vector_24" d="M718.703 160.843C715.715 173.355 711.94 176.333 708.365 175.479C704.79 174.626 702.769 170.263 705.757 157.751C708.745 145.239 719.186 130.169 719.186 130.169C719.186 130.169 721.691 148.331 718.703 160.843Z" fill="#CCCCCC"/>
<path id="Vector_25" d="M674.782 108.717C672.959 116.352 670.656 118.169 668.474 117.648C666.293 117.127 665.059 114.465 666.883 106.831C668.706 99.1957 675.077 90 675.077 90C675.077 90 676.605 101.082 674.782 108.717Z" fill="#CCCCCC"/>
<path id="Vector_26" d="M659.703 261.843C656.715 274.355 652.94 277.333 649.365 276.479C645.79 275.626 643.769 271.263 646.757 258.751C649.745 246.239 660.186 231.169 660.186 231.169C660.186 231.169 662.691 249.331 659.703 261.843Z" fill="#CCCCCC"/>
<path id="Vector_27" d="M651.703 479.843C648.715 492.355 644.94 495.333 641.365 494.479C637.79 493.626 635.769 489.263 638.757 476.751C641.745 464.239 652.186 449.169 652.186 449.169C652.186 449.169 654.691 467.331 651.703 479.843Z" fill="#CCCCCC"/>
<path id="Vector_28" d="M664.782 390.717C662.959 398.352 660.656 400.169 658.474 399.648C656.293 399.127 655.059 396.465 656.883 388.831C658.706 381.196 665.077 372 665.077 372C665.077 372 666.605 383.082 664.782 390.717Z" fill="#CCCCCC"/>
<path id="Vector_29" d="M801.703 303.843C798.715 316.355 794.94 319.333 791.365 318.479C787.79 317.626 785.769 313.263 788.757 300.751C791.745 288.239 802.186 273.169 802.186 273.169C802.186 273.169 804.691 291.331 801.703 303.843Z" fill="#CCCCCC"/>
<path id="Vector_30" d="M757.782 251.717C755.959 259.352 753.656 261.169 751.474 260.648C749.293 260.127 748.059 257.465 749.883 249.831C751.706 242.196 758.077 233 758.077 233C758.077 233 759.605 244.082 757.782 251.717Z" fill="#CCCCCC"/>
<path id="Vector_31" d="M355.703 353.843C352.715 366.355 348.94 369.333 345.365 368.479C341.79 367.626 339.769 363.263 342.757 350.751C345.745 338.239 356.186 323.169 356.186 323.169C356.186 323.169 358.691 341.331 355.703 353.843Z" fill="#CCCCCC"/>
</g>
</g>
</svg>
