<svg width="1173" height="851" viewBox="0 0 1173 851" fill="none" xmlns="http://www.w3.org/2000/svg">
<g id="undraw_through_the_park_lxnl 1" clip-path="url(#clip0_1_62)">
<path id="Vector" d="M652.792 301.974H542.89V305.879H560.03V342.966H563.575V305.879H630.334V342.966H633.88V305.879H652.792V301.974Z" fill="#3F3D56"/>
<path id="Vector_2" d="M692.516 204.96H664.709V236.543H677.6V342.966H681.076V236.543H692.516V204.96Z" fill="#3F3D56"/>
<path id="Vector_3" d="M652.792 289.677H544.214V293.776H652.792V289.677Z" fill="#3F3D56"/>
<path id="Vector_4" d="M652.792 280.112H544.214V284.211H652.792V280.112Z" fill="#3F3D56"/>
<path id="Vector_5" d="M652.792 270.547H544.214V273.28H652.792V270.547Z" fill="#3F3D56"/>
<path id="Vector_6" d="M117.847 -72.4192H118.613L132.412 843.069H103.282L117.847 -72.4192Z" fill="#3F3D56"/>
<path id="Vector_7" d="M1176.48 64.2208H1177.14L1189.06 804.81H1163.9L1176.48 64.2208Z" fill="#3F3D56"/>
<path id="Vector_8" d="M489.263 248.685H489.367L491.249 364.829H487.277L489.263 248.685Z" fill="#3F3D56"/>
<path id="Vector_9" d="M495.724 311.648L494.879 309.847L488.818 313.429L489.663 315.231L495.724 311.648Z" fill="#3F3D56"/>
<path id="Vector_10" d="M827.577 114.778H827.785L831.549 414.019H823.604L827.577 114.778Z" fill="#3F3D56"/>
<path id="Vector_11" d="M845.106 278.147L842.944 273.535L827.427 282.707L829.59 287.319L845.106 278.147Z" fill="#3F3D56"/>
<path id="Vector_12" d="M181.405 797.978C181.405 797.978 182.636 768.911 207.887 772.289Z" fill="#3F3D56"/>
<path id="Vector_13" d="M174.122 770.65C181.069 770.65 186.701 764.226 186.701 756.303C186.701 748.379 181.069 741.955 174.122 741.955C167.175 741.955 161.543 748.379 161.543 756.303C161.543 764.226 167.175 770.65 174.122 770.65Z" fill="#FFD363"/>
<path id="Vector_14" d="M174.784 780.215H172.136V807.543H174.784V780.215Z" fill="#3F3D56"/>
<path id="Vector_15" d="M268.797 732.391C268.797 732.391 270.029 703.324 295.279 706.702Z" fill="#3F3D56"/>
<path id="Vector_16" d="M262.838 705.063C269.786 705.063 275.417 698.639 275.417 690.715C275.417 682.792 269.786 676.368 262.838 676.368C255.891 676.368 250.259 682.792 250.259 690.715C250.259 698.639 255.891 705.063 262.838 705.063Z" fill="#FFD363"/>
<path id="Vector_17" d="M263.5 714.627H260.852V741.955H263.5V714.627Z" fill="#3F3D56"/>
<path id="Vector_18" d="M534.945 511.034C534.945 511.034 535.931 488.086 556.131 490.753Z" fill="#3F3D56"/>
<path id="Vector_19" d="M529.649 489.171C535.499 489.171 540.242 484.277 540.242 478.24C540.242 472.203 535.499 467.309 529.649 467.309C523.799 467.309 519.056 472.203 519.056 478.24C519.056 484.277 523.799 489.171 529.649 489.171Z" fill="#FFD363"/>
<path id="Vector_20" d="M530.973 497.37H528.325V519.232H530.973V497.37Z" fill="#3F3D56"/>
<path id="Vector_21" d="M921.589 439.981C921.589 439.981 922.574 417.033 942.775 419.701Z" fill="#3F3D56"/>
<path id="Vector_22" d="M916.955 418.118C922.439 418.118 926.886 413.224 926.886 407.187C926.886 401.15 922.439 396.256 916.955 396.256C911.47 396.256 907.024 401.15 907.024 407.187C907.024 413.224 911.47 418.118 916.955 418.118Z" fill="#FFD363"/>
<path id="Vector_23" d="M917.617 426.317H914.968V448.179H917.617V426.317Z" fill="#3F3D56"/>
<path id="Vector_24" d="M553.483 569.789C553.483 569.789 554.407 546.841 573.345 549.509Z" fill="#3F3D56"/>
<path id="Vector_25" d="M546.862 549.293C552.713 549.293 557.455 544.093 557.455 537.678C557.455 531.264 552.713 526.064 546.862 526.064C541.012 526.064 536.269 531.264 536.269 537.678C536.269 544.093 541.012 549.293 546.862 549.293Z" fill="#FFD363"/>
<path id="Vector_26" d="M548.187 556.125H545.538V577.987H548.187V556.125Z" fill="#3F3D56"/>
<path id="Vector_27" d="M509.787 613.514C509.787 613.514 510.772 590.566 530.973 593.233Z" fill="#3F3D56"/>
<path id="Vector_28" d="M504.491 591.651C510.341 591.651 515.084 586.757 515.084 580.72C515.084 574.683 510.341 569.789 504.491 569.789C498.64 569.789 493.898 574.683 493.898 580.72C493.898 586.757 498.64 591.651 504.491 591.651Z" fill="#FFD363"/>
<path id="Vector_29" d="M505.815 599.85H503.166V621.712H505.815V599.85Z" fill="#3F3D56"/>
<path id="Vector_30" d="M982.499 476.874C982.499 476.874 983.423 455.456 1002.36 457.945Z" fill="#3F3D56"/>
<path id="Vector_31" d="M975.878 456.378C981.728 456.378 986.471 451.178 986.471 444.763C986.471 438.349 981.728 433.149 975.878 433.149C970.028 433.149 965.285 438.349 965.285 444.763C965.285 451.178 970.028 456.378 975.878 456.378Z" fill="#FFD363"/>
<path id="Vector_32" d="M977.202 463.21H974.554V485.072H977.202V463.21Z" fill="#3F3D56"/>
<path id="Vector_33" d="M411.802 527.431C411.802 527.431 412.787 504.483 432.988 507.15Z" fill="#3F3D56"/>
<path id="Vector_34" d="M405.843 505.568C411.328 505.568 415.774 500.368 415.774 493.954C415.774 487.539 411.328 482.339 405.843 482.339C400.359 482.339 395.913 487.539 395.913 493.954C395.913 500.368 400.359 505.568 405.843 505.568Z" fill="#FFD363"/>
<path id="Vector_35" d="M407.83 512.4H405.181V534.262H407.83V512.4Z" fill="#3F3D56"/>
<path id="Vector_36" d="M868.624 414.019C868.624 414.019 869.609 391.072 889.81 393.739Z" fill="#3F3D56"/>
<path id="Vector_37" d="M863.99 392.157C869.474 392.157 873.921 387.263 873.921 381.226C873.921 375.189 869.474 370.294 863.99 370.294C858.505 370.294 854.059 375.189 854.059 381.226C854.059 387.263 858.505 392.157 863.99 392.157Z" fill="#FFD363"/>
<path id="Vector_38" d="M864.652 400.355H862.004V422.218H864.652V400.355Z" fill="#3F3D56"/>
<path id="Vector_39" d="M27.8066 803.443C27.8066 803.443 29.0383 774.376 54.289 777.755Z" fill="#3F3D56"/>
<path id="Vector_40" d="M21.848 776.115C28.7953 776.115 34.4272 769.998 34.4272 762.451C34.4272 754.905 28.7953 748.787 21.848 748.787C14.9007 748.787 9.26886 754.905 9.26886 762.451C9.26886 769.998 14.9007 776.115 21.848 776.115Z" fill="#FFD363"/>
<path id="Vector_41" d="M22.5101 785.68H19.8618V813.008H22.5101V785.68Z" fill="#3F3D56"/>
<path id="Vector_42" d="M1138.74 728.291C1138.74 728.291 1139.98 699.224 1165.23 702.603Z" fill="#3F3D56"/>
<path id="Vector_43" d="M1131.46 700.963C1138.41 700.963 1144.04 694.846 1144.04 687.299C1144.04 679.753 1138.41 673.635 1131.46 673.635C1124.52 673.635 1118.88 679.753 1118.88 687.299C1118.88 694.846 1124.52 700.963 1131.46 700.963Z" fill="#FFD363"/>
<path id="Vector_44" d="M1133.45 710.528H1130.8V737.856H1133.45V710.528Z" fill="#3F3D56"/>
<path id="Vector_45" d="M1124.18 829.405C1124.18 829.405 1125.41 800.338 1150.66 803.717Z" fill="#3F3D56"/>
<path id="Vector_46" d="M1118.22 802.077C1125.17 802.077 1130.8 795.653 1130.8 787.73C1130.8 779.806 1125.17 773.383 1118.22 773.383C1111.27 773.383 1105.64 779.806 1105.64 787.73C1105.64 795.653 1111.27 802.077 1118.22 802.077Z" fill="#FFD363"/>
<path id="Vector_47" d="M1118.88 811.642H1116.23V838.97H1118.88V811.642Z" fill="#3F3D56"/>
<g id="road">
<path id="Vector_48" d="M48.9925 849.901C48.9925 849.901 603.401 686.237 598.121 518.628C588.441 472.29 521.56 460.459 521.56 460.459C521.56 460.459 363.157 436.796 449.399 379.612C535.64 322.428 771.484 336.231 771.484 336.231C771.484 336.231 528.6 379.612 635.962 403.274C722.203 409.19 833.085 434.824 833.085 434.824C833.085 434.824 1058.37 488.065 1090.05 618.207C1121.73 748.35 1095.33 848.915 1095.33 848.915L48.9925 849.901Z" fill="#30B849" fill-opacity="0.14"/>
</g>
<path id="Vector_49" d="M652.442 851.267L650.144 847.804C653.39 845.301 656.588 842.812 659.736 840.336L662.061 843.779C658.9 846.259 655.693 848.755 652.442 851.267Z" fill="white"/>
<g id="bird">
<path id="Vector_50" d="M470.164 51.1708L486.366 36.6212C473.779 35.0621 468.608 42.7694 466.491 48.8698C456.658 44.2854 445.953 50.2935 445.953 50.2935L478.371 63.5071C476.735 58.6026 473.889 54.3233 470.164 51.1708Z" fill="#1E1E1E"/>
</g>
</g>
<defs>
<clipPath id="clip0_1_62">
<rect width="1173" height="851" fill="white"/>
</clipPath>
</defs>
</svg>
