<svg width="1240" height="994" viewBox="0 0 1240 994" fill="none" xmlns="http://www.w3.org/2000/svg">
<g id="undraw_friendship_mni7 1">
<g id="Group 1">
<g id="Group" opacity="0.1">
<path id="Vector" d="M838.237 643.81C945.657 643.81 1032.74 570.145 1032.74 479.274C1032.74 388.404 945.657 314.739 838.237 314.739C730.817 314.739 643.735 388.404 643.735 479.274C643.735 570.145 730.817 643.81 838.237 643.81Z" fill="#A2ADB3"/>
<path id="Vector_2" d="M741.639 691.048C849.059 691.048 936.141 617.383 936.141 526.512C936.141 435.642 849.059 361.977 741.639 361.977C634.219 361.977 547.138 435.642 547.138 526.512C547.138 617.383 634.219 691.048 741.639 691.048Z" fill="#A2ADB3"/>
<path id="Vector_3" d="M513.938 692.657C621.358 692.657 708.439 618.992 708.439 528.122C708.439 437.251 621.358 363.586 513.938 363.586C406.518 363.586 319.437 437.251 319.437 528.122C319.437 618.992 406.518 692.657 513.938 692.657Z" fill="#A2ADB3"/>
<path id="Vector_4" d="M439.928 736C547.348 736 634.429 662.335 634.429 571.465C634.429 480.594 547.348 406.929 439.928 406.929C332.507 406.929 245.426 480.594 245.426 571.465C245.426 662.335 332.507 736 439.928 736Z" fill="#A2ADB3"/>
<path id="Vector_5" d="M231.501 639.64C338.921 639.64 439.132 565.975 439.132 475.105C439.132 384.234 338.921 310.569 231.501 310.569C124.081 310.569 37 384.234 37 475.105C37 565.975 124.081 639.64 231.501 639.64Z" fill="#A2ADB3"/>
<path id="Vector_6" d="M320.369 469.521C427.789 469.521 514.87 395.856 514.87 304.986C514.87 214.115 427.789 140.45 320.369 140.45C212.949 140.45 125.868 214.115 125.868 304.986C125.868 395.856 212.949 469.521 320.369 469.521Z" fill="#A2ADB3"/>
<path id="Vector_7" d="M428.531 469.521C535.951 469.521 623.032 395.856 623.032 304.986C623.032 214.115 535.951 140.45 428.531 140.45C321.111 140.45 234.03 214.115 234.03 304.986C234.03 395.856 321.111 469.521 428.531 469.521Z" fill="#A2ADB3"/>
<path id="Vector_8" d="M491.164 402.101C598.584 402.101 685.665 328.436 685.665 237.565C685.665 146.695 598.584 73.0299 491.164 73.0299C383.744 73.0299 296.663 146.695 296.663 237.565C296.663 328.436 383.744 402.101 491.164 402.101Z" fill="#A2ADB3"/>
<path id="Vector_9" d="M650.563 475.943C757.983 475.943 845.064 402.278 845.064 311.408C845.064 220.537 757.983 146.872 650.563 146.872C543.143 146.872 456.062 220.537 456.062 311.408C456.062 402.278 543.143 475.943 650.563 475.943Z" fill="#A2ADB3"/>
<path id="Vector_10" d="M1022.5 620.424C1129.92 620.424 1217 546.759 1217 455.889C1217 365.019 1129.92 291.354 1022.5 291.354C915.079 291.354 827.998 365.019 827.998 455.889C827.998 546.759 915.079 620.424 1022.5 620.424Z" fill="#A2ADB3"/>
<path id="Vector_11" d="M910.532 538.551C1017.95 538.551 1105.03 464.886 1105.03 374.016C1105.03 283.145 1017.95 209.48 910.532 209.48C803.112 209.48 716.031 283.145 716.031 374.016C716.031 464.886 803.112 538.551 910.532 538.551Z" fill="#A2ADB3"/>
<path id="Vector_12" d="M838.424 456.678C945.844 456.678 1032.93 383.013 1032.93 292.142C1032.93 201.272 945.844 127.607 838.424 127.607C731.004 127.607 643.923 201.272 643.923 292.142C643.923 383.013 731.004 456.678 838.424 456.678Z" fill="#A2ADB3"/>
<path id="Vector_13" d="M701.799 333.071C809.219 333.071 896.3 259.406 896.3 168.535C896.3 77.665 809.219 4 701.799 4C594.379 4 507.298 77.665 507.298 168.535C507.298 259.406 594.379 333.071 701.799 333.071Z" fill="#A2ADB3"/>
<path id="Vector_14" d="M956.08 469.521C1063.5 469.521 1150.58 395.856 1150.58 304.986C1150.58 214.115 1063.5 140.45 956.08 140.45C848.659 140.45 761.578 214.115 761.578 304.986C761.578 395.856 848.659 469.521 956.08 469.521Z" fill="#A2ADB3"/>
</g>
</g>
</g>
</svg>
