<svg width="1240" height="994" viewBox="0 0 1240 994" fill="none" xmlns="http://www.w3.org/2000/svg">
<g id="undraw_friendship_mni7 1">
<g id="Group 1">
<g id="Group" opacity="0.1">
<path id="Vector" d="M819.064 596.611C920.293 596.611 1002.36 528.38 1002.36 444.213C1002.36 360.046 920.293 291.816 819.064 291.816C717.834 291.816 635.771 360.046 635.771 444.213C635.771 528.38 717.834 596.611 819.064 596.611Z" fill="#565968"/>
<path id="Vector_2" d="M728.033 640.364C829.263 640.364 911.326 572.133 911.326 487.966C911.326 403.799 829.263 335.569 728.033 335.569C626.803 335.569 544.74 403.799 544.74 487.966C544.74 572.133 626.803 640.364 728.033 640.364Z" fill="#565968"/>
<path id="Vector_3" d="M513.454 641.855C614.683 641.855 696.746 573.624 696.746 489.457C696.746 405.29 614.683 337.059 513.454 337.059C412.224 337.059 330.161 405.29 330.161 489.457C330.161 573.624 412.224 641.855 513.454 641.855Z" fill="#565968"/>
<path id="Vector_4" d="M443.708 682C544.938 682 627.001 613.769 627.001 529.602C627.001 445.436 544.938 377.205 443.708 377.205C342.478 377.205 260.415 445.436 260.415 529.602C260.415 613.769 342.478 682 443.708 682Z" fill="#565968"/>
<path id="Vector_5" d="M247.293 592.749C348.522 592.749 442.958 524.518 442.958 440.351C442.958 356.184 348.522 287.954 247.293 287.954C146.063 287.954 64 356.184 64 440.351C64 524.518 146.063 592.749 247.293 592.749Z" fill="#565968"/>
<path id="Vector_6" d="M331.039 435.179C432.269 435.179 514.332 366.949 514.332 282.782C514.332 198.615 432.269 130.384 331.039 130.384C229.81 130.384 147.747 198.615 147.747 282.782C147.747 366.949 229.81 435.179 331.039 435.179Z" fill="#565968"/>
<path id="Vector_7" d="M432.968 435.179C534.198 435.179 616.261 366.949 616.261 282.782C616.261 198.615 534.198 130.384 432.968 130.384C331.738 130.384 249.676 198.615 249.676 282.782C249.676 366.949 331.738 435.179 432.968 435.179Z" fill="#565968"/>
<path id="Vector_8" d="M491.992 372.733C593.222 372.733 675.285 304.502 675.285 220.335C675.285 136.168 593.222 67.9375 491.992 67.9375C390.762 67.9375 308.699 136.168 308.699 220.335C308.699 304.502 390.762 372.733 491.992 372.733Z" fill="#565968"/>
<path id="Vector_9" d="M642.205 441.128C743.435 441.128 825.498 372.897 825.498 288.73C825.498 204.563 743.435 136.332 642.205 136.332C540.975 136.332 458.912 204.563 458.912 288.73C458.912 372.897 540.975 441.128 642.205 441.128Z" fill="#565968"/>
<path id="Vector_10" d="M992.707 574.951C1093.94 574.951 1176 506.72 1176 422.553C1176 338.386 1093.94 270.155 992.707 270.155C891.478 270.155 809.415 338.386 809.415 422.553C809.415 506.72 891.478 574.951 992.707 574.951Z" fill="#565968"/>
<path id="Vector_11" d="M887.193 499.117C988.423 499.117 1070.49 430.886 1070.49 346.719C1070.49 262.553 988.423 194.322 887.193 194.322C785.963 194.322 703.9 262.553 703.9 346.719C703.9 430.886 785.963 499.117 887.193 499.117Z" fill="#565968"/>
<path id="Vector_12" d="M819.24 423.283C920.47 423.283 1002.53 355.053 1002.53 270.886C1002.53 186.719 920.47 118.488 819.24 118.488C718.01 118.488 635.947 186.719 635.947 270.886C635.947 355.053 718.01 423.283 819.24 423.283Z" fill="#565968"/>
<path id="Vector_13" d="M690.489 308.795C791.718 308.795 873.781 240.564 873.781 156.398C873.781 72.2307 791.718 4 690.489 4C589.259 4 507.196 72.2307 507.196 156.398C507.196 240.564 589.259 308.795 690.489 308.795Z" fill="#565968"/>
<path id="Vector_14" d="M930.116 435.179C1031.35 435.179 1113.41 366.949 1113.41 282.782C1113.41 198.615 1031.35 130.384 930.116 130.384C828.886 130.384 746.823 198.615 746.823 282.782C746.823 366.949 828.886 435.179 930.116 435.179Z" fill="#565968"/>
</g>
</g>
</g>
</svg>
