<svg width="1018" height="753" viewBox="0 0 1018 753" fill="none" xmlns="http://www.w3.org/2000/svg">
<g id="undraw_dreamer_re_9tua 1 1" clip-path="url(#clip0_4_59)">
<g id="undraw_moonlight_-5-ksn 1">
<g id="stars">
<path id="Vector" d="M349.618 198.984C352.769 198.984 355.324 196.3 355.324 192.99C355.324 189.68 352.769 186.996 349.618 186.996C346.467 186.996 343.913 189.68 343.913 192.99C343.913 196.3 346.467 198.984 349.618 198.984Z" fill="#F2F2F2"/>
<path id="Vector_2" d="M170.468 393.191C171.729 393.191 172.751 392.117 172.751 390.793C172.751 389.469 171.729 388.396 170.468 388.396C169.208 388.396 168.186 389.469 168.186 390.793C168.186 392.117 169.208 393.191 170.468 393.191Z" fill="#F2F2F2"/>
<path id="Vector_3" d="M495.282 505.795C496.543 505.795 497.564 504.722 497.564 503.398C497.564 502.073 496.543 501 495.282 501C494.022 501 493 502.073 493 503.398C493 504.722 494.022 505.795 495.282 505.795Z" fill="#F2F2F2"/>
<path id="Vector_4" d="M802.628 390.793C803.889 390.793 804.91 389.72 804.91 388.396C804.91 387.071 803.889 385.998 802.628 385.998C801.368 385.998 800.346 387.071 800.346 388.396C800.346 389.72 801.368 390.793 802.628 390.793Z" fill="#F2F2F2"/>
<path id="Vector_5" d="M70.0531 415.968C71.3135 415.968 72.3353 414.895 72.3353 413.571C72.3353 412.246 71.3135 411.173 70.0531 411.173C68.7927 411.173 67.7709 412.246 67.7709 413.571C67.7709 414.895 68.7927 415.968 70.0531 415.968Z" fill="#F2F2F2"/>
<path id="Vector_6" d="M444.328 368.016C445.589 368.016 446.61 366.942 446.61 365.618C446.61 364.294 445.589 363.221 444.328 363.221C443.068 363.221 442.046 364.294 442.046 365.618C442.046 366.942 443.068 368.016 444.328 368.016Z" fill="#F2F2F2"/>
<path id="Vector_7" d="M576.694 298.485H574.412V299.684H576.694V298.485Z" fill="#F2F2F2"/>
<path id="Vector_8" d="M112.273 292.491H109.991V293.69H112.273V292.491Z" fill="#F2F2F2"/>
<path id="Vector_9" d="M276.589 429.155H274.307V430.354H276.589V429.155Z" fill="#F2F2F2"/>
<path id="Vector_10" d="M519.64 195.388C520.9 195.388 521.922 194.314 521.922 192.99C521.922 191.666 520.9 190.592 519.64 190.592C518.379 190.592 517.358 191.666 517.358 192.99C517.358 194.314 518.379 195.388 519.64 195.388Z" fill="#F2F2F2"/>
<path id="Vector_11" opacity="0.1" d="M876.605 725.554C877.475 725.554 878.311 725.191 878.926 724.544C879.542 723.897 879.888 723.019 879.888 722.104C879.888 721.19 879.542 720.312 878.926 719.665C878.311 719.018 877.475 718.655 876.605 718.655H849.607C850.478 720.485 850.621 722.603 850.005 724.544C849.389 726.484 848.065 728.089 846.323 729.004C846.323 729.919 846.669 730.796 847.285 731.443C847.901 732.09 848.736 732.453 849.607 732.453H876.605C877.475 732.453 878.311 732.09 878.926 731.443C879.542 730.796 879.888 729.919 879.888 729.004C879.888 728.089 879.542 727.211 878.926 726.564C878.311 725.917 877.475 725.554 876.605 725.554Z" fill="#F2F2F2"/>
<path id="Vector_12" d="M44.9493 475.909H42.6671V477.107H44.9493V475.909Z" fill="#F2F2F2"/>
<path id="Vector_13" d="M712.483 481.903H710.201V483.101H712.483V481.903Z" fill="#F2F2F2"/>
</g>
<g id="fire">
<path id="Vector_14" d="M878.197 678.968C878.197 678.968 880.698 676.235 880.648 673.555Z" fill="#FF6584"/>
<path id="Vector_15" d="M852.564 656.199C852.564 656.199 851.52 652.571 849.271 651.305Z" fill="#FF6584"/>
<path id="Vector_16" d="M827.46 607.048C827.46 607.048 826.416 603.42 824.167 602.154Z" fill="#FF6584"/>
<path id="Vector_17" d="M857.128 672.983C857.128 672.983 856.084 669.354 853.835 668.088Z" fill="#FF6584"/>
<path id="Vector_18" d="M853.705 614.241C853.705 614.241 852.661 610.612 850.411 609.347Z" fill="#FF6584"/>
<path id="Vector_19" d="M846.858 635.82C846.858 635.82 845.814 632.191 843.565 630.925Z" fill="#FF6584"/>
<path id="Vector_20" d="M875.914 716.131C875.914 716.131 878.416 713.398 878.366 710.718Z" fill="#FF6584"/>
<path id="Vector_21" d="M880.479 695.751C880.479 695.751 882.98 693.018 882.93 690.338Z" fill="#FF6584"/>
</g>
<g id="man">
<path id="Vector_22" d="M812.437 718.436C812.898 737.248 802.066 732.453 788.935 732.453C775.804 732.453 764.972 734.851 764.884 718.436C764.84 710.353 775.607 708.595 788.738 708.595C801.87 708.595 812.239 710.355 812.437 718.436Z" fill="#3F3D56"/>
<path id="Vector_23" d="M843.157 725.871C842.945 725.752 842.714 725.674 842.476 725.641C841.285 725.442 840.104 725.177 838.94 724.846C837.77 724.513 836.695 723.885 835.809 723.017C835.478 722.608 835.109 722.237 834.707 721.907C834.503 721.745 834.258 721.649 834.003 721.63C833.748 721.61 833.493 721.669 833.269 721.799C833.223 721.837 833.18 721.879 833.142 721.926C832.979 721.813 832.816 721.699 832.653 721.586C831.784 720.986 830.911 720.391 830.033 719.804L829.998 719.78C830.023 719.635 830.024 719.487 830 719.342C829.847 718.865 829.537 718.462 829.127 718.203C830.259 718.192 831.397 718.083 832.522 717.958C833.594 717.977 834.629 717.552 835.405 716.774C835.521 716.639 835.592 716.467 835.605 716.285C835.607 715.913 835.241 715.669 834.913 715.528C834.476 715.34 834.023 715.2 833.559 715.108C833.235 715.061 832.914 714.99 832.599 714.898C832.318 714.79 832.047 714.656 831.79 714.496C831.232 714.174 830.675 713.851 830.117 713.529C829.879 713.408 829.661 713.249 829.47 713.057C829.186 712.741 829.06 712.295 828.77 711.984C828.504 711.698 827.425 711.322 827.271 711.908C827.209 712.139 827.442 712.396 827.47 712.654C827.097 712.408 826.711 712.185 826.312 711.986C826.334 711.934 826.363 711.887 826.381 711.834C824.53 710.275 823.059 708.274 822.091 705.999C822.257 706.003 822.423 706.014 822.589 706.012C822.871 706.04 823.154 705.967 823.393 705.806C823.491 705.712 823.568 705.596 823.617 705.466C823.667 705.336 823.687 705.196 823.678 705.057C823.656 704.779 823.591 704.506 823.485 704.25C823.249 703.483 822.871 702.772 822.375 702.157C821.893 701.668 821.345 701.259 820.747 700.942L820.651 700.885C820.61 700.756 820.573 700.625 820.524 700.499C820.164 699.712 819.756 698.95 819.304 698.218C818.667 696.991 818.197 695.677 817.908 694.314C817.802 693.483 817.499 692.694 817.028 692.017C816.157 691.009 814.663 691.034 813.376 691.187C812.641 691.274 811.91 691.39 811.179 691.509C811.172 691.49 811.172 691.469 811.165 691.45C811.073 691.269 811.016 691.071 810.996 690.868C811.015 690.701 811.049 690.537 811.1 690.378C811.139 690.181 811.13 689.976 811.075 689.783C811.019 689.59 810.918 689.415 810.78 689.273C810.75 689.243 810.72 689.208 810.69 689.175C810.77 688.976 810.844 688.774 810.911 688.572C810.972 688.497 811.017 688.41 811.045 688.316C811.073 688.222 811.082 688.123 811.072 688.025C811.204 687.534 811.274 687.027 811.28 686.516C811.13 685.388 811.092 684.246 811.165 683.11C811.127 682.829 811.029 682.56 810.88 682.323C810.853 682.285 810.808 682.268 810.778 682.234C811 681.924 811.257 681.644 811.544 681.399C812.106 680.943 812.707 680.542 813.34 680.203C813.492 680.115 813.703 680.053 813.848 679.952C814.07 679.992 814.294 680.015 814.52 680.023C815.356 680.029 816.181 679.819 816.922 679.412C817.663 679.005 818.298 678.414 818.772 677.69C819.246 676.966 819.543 676.131 819.639 675.258C819.735 674.385 819.626 673.501 819.321 672.683C819.553 672.624 819.771 672.517 819.963 672.368C820.155 672.219 820.317 672.031 820.439 671.816C820.69 671.359 820.84 670.849 820.878 670.323C820.918 670.121 820.92 669.913 820.883 669.71C820.846 669.507 820.771 669.314 820.663 669.142C820.471 668.947 820.251 668.785 820.01 668.662C819.678 668.444 819.399 668.148 819.196 667.796C819.052 667.546 818.948 667.272 818.818 667.014C818.603 666.534 818.267 666.126 817.846 665.833C817.426 665.54 816.937 665.374 816.432 665.352C815.953 665.416 815.479 665.516 815.013 665.649C813.415 665.944 811.679 665.056 810.197 665.748C809.832 665.935 809.493 666.172 809.189 666.454C808.772 666.816 808.371 667.197 807.986 667.597C807.652 667.896 807.399 668.283 807.253 668.718C807.052 669.512 807.53 670.4 807.226 671.157C807.121 671.374 806.997 671.579 806.854 671.77C806.518 672.288 806.883 674.31 806.846 674.936C806.803 675.243 806.877 675.554 807.052 675.804C807.097 675.851 807.147 675.891 807.202 675.924C804.717 676.855 802.286 677.941 799.923 679.174C797.086 680.616 794.731 682.927 793.168 685.803C792.767 686.624 792.462 687.494 792.099 688.335C791.615 689.457 791.03 690.527 790.445 691.595C789.732 692.897 789.018 694.201 788.193 695.429C787.723 696.08 787.288 696.758 786.889 697.459C786.879 697.562 786.876 697.664 786.881 697.767C786.897 697.864 786.887 697.964 786.854 698.056C786.819 698.109 786.772 698.153 786.718 698.186C786.664 698.218 786.604 698.238 786.542 698.243L786.523 698.296C786.337 698.927 786.182 699.568 786.06 700.216C785.817 701.245 785.429 702.239 785.279 703.289C785.193 703.42 785.144 703.576 785.141 703.736C785.137 703.895 785.178 704.053 785.259 704.189C785.34 704.324 785.457 704.432 785.595 704.498C785.734 704.565 785.888 704.587 786.039 704.562C786.893 704.962 787.717 705.429 788.538 705.901C788.526 705.964 788.507 706.025 788.499 706.09C788.472 706.758 788.625 707.42 788.941 708C789.257 708.58 789.723 709.054 790.285 709.367C791.417 709.975 792.658 710.329 793.928 710.407C794.42 710.469 794.915 710.498 795.409 710.551C796.128 710.971 796.894 711.297 797.689 711.522C797.863 711.575 798.042 711.604 798.223 711.61C798.465 711.593 798.7 711.519 798.911 711.394C799.122 711.269 799.304 711.096 799.443 710.887C803.686 711.134 807.941 711.043 812.171 710.615C813.341 710.328 814.572 710.529 815.606 711.174C816.523 711.957 816.708 713.346 817.389 714.361C817.885 714.987 818.441 715.557 819.049 716.062C820.257 717.405 821.325 718.881 822.236 720.462C823.155 722.06 824.486 723.351 826.075 724.186C826.361 723.707 826.776 723.328 827.267 723.097C827.394 723.017 827.515 722.925 827.64 722.839C827.808 723.125 828.003 723.393 828.223 723.637C828.386 723.823 828.549 724.019 828.701 724.221C828.697 724.222 828.692 724.219 828.688 724.22C828.465 724.256 828.391 724.548 828.365 724.783C828.268 725.682 828.17 726.58 828.072 727.479C828.038 727.657 828.049 727.841 828.106 728.012C828.212 728.198 828.375 728.34 828.568 728.415C829.362 728.815 830.221 729.053 831.1 729.116C831.542 729.148 831.986 729.135 832.428 729.176C833.151 729.274 833.868 729.424 834.572 729.626C836.49 730.085 838.461 730.247 840.423 730.107C840.828 730.097 841.229 730.017 841.61 729.871C842.06 729.644 842.459 729.319 842.781 728.918C843.19 728.51 843.493 728 843.662 727.435C843.741 727.151 843.735 726.849 843.644 726.569C843.554 726.289 843.384 726.046 843.157 725.871Z" fill="#3F3D56"/>
<path id="Vector_24" d="M811.589 665.649C811.779 665.615 811.966 665.56 812.152 665.51C811.552 665.431 810.942 665.493 810.366 665.691C810.774 665.73 811.185 665.716 811.589 665.649Z" fill="#FF6584"/>
<path id="Vector_25" d="M815.395 667.014C815.525 667.272 815.628 667.546 815.773 667.796C815.976 668.148 816.255 668.444 816.587 668.662C816.827 668.785 817.048 668.947 817.24 669.142C817.348 669.314 817.423 669.507 817.46 669.71C817.496 669.913 817.495 670.121 817.455 670.323C817.416 670.849 817.267 671.359 817.016 671.816C816.894 672.031 816.732 672.219 816.54 672.368C816.348 672.517 816.13 672.624 815.898 672.683C816.249 673.556 816.37 674.512 816.249 675.45C816.128 676.389 815.769 677.277 815.21 678.02C814.65 678.763 813.911 679.334 813.069 679.674C812.227 680.014 811.314 680.11 810.425 679.952C810.28 680.053 810.068 680.115 809.917 680.203C809.284 680.542 808.683 680.943 808.12 681.399C807.834 681.644 807.577 681.924 807.355 682.234C807.385 682.268 807.43 682.285 807.456 682.323C807.606 682.56 807.704 682.829 807.742 683.11C807.668 684.246 807.707 685.388 807.857 686.516C807.851 687.027 807.781 687.534 807.648 688.025C807.658 688.123 807.649 688.222 807.622 688.316C807.594 688.41 807.548 688.497 807.488 688.572C807.42 688.774 807.346 688.976 807.266 689.175C807.297 689.208 807.327 689.243 807.357 689.273C807.494 689.415 807.595 689.59 807.651 689.783C807.707 689.976 807.716 690.181 807.677 690.378C807.626 690.537 807.591 690.701 807.573 690.868C807.592 691.071 807.65 691.269 807.741 691.45C807.749 691.469 807.749 691.49 807.756 691.509C808.486 691.39 809.218 691.274 809.952 691.187C810.314 691.142 810.678 691.117 811.042 691.112C811.015 691.033 810.999 690.951 810.996 690.868C811.015 690.701 811.049 690.537 811.1 690.378C811.139 690.181 811.13 689.976 811.075 689.783C811.019 689.59 810.918 689.415 810.78 689.273C810.75 689.243 810.72 689.208 810.69 689.175C810.77 688.976 810.844 688.774 810.911 688.572C810.972 688.497 811.017 688.41 811.045 688.316C811.072 688.222 811.082 688.123 811.072 688.025C811.204 687.534 811.274 687.027 811.28 686.516C811.13 685.388 811.092 684.246 811.165 683.11C811.127 682.829 811.029 682.56 810.88 682.323C810.853 682.285 810.808 682.268 810.778 682.234C811 681.924 811.257 681.644 811.543 681.399C812.106 680.943 812.707 680.542 813.34 680.203C813.492 680.115 813.703 680.053 813.848 679.952C814.07 679.992 814.294 680.015 814.52 680.023C815.356 680.029 816.181 679.819 816.922 679.412C817.663 679.005 818.298 678.414 818.772 677.69C819.246 676.966 819.543 676.131 819.639 675.258C819.735 674.385 819.625 673.501 819.321 672.683C819.553 672.624 819.771 672.517 819.963 672.368C820.155 672.219 820.317 672.031 820.439 671.816C820.69 671.359 820.84 670.849 820.878 670.323C820.918 670.121 820.92 669.913 820.883 669.71C820.846 669.507 820.771 669.314 820.663 669.142C820.471 668.947 820.251 668.785 820.01 668.662C819.678 668.444 819.399 668.148 819.196 667.796C819.051 667.546 818.948 667.272 818.818 667.014C818.603 666.534 818.267 666.126 817.846 665.833C817.425 665.54 816.936 665.374 816.432 665.352C815.953 665.416 815.479 665.516 815.013 665.649C814.751 665.693 814.486 665.712 814.222 665.704C814.719 666.02 815.125 666.473 815.395 667.014Z" fill="#FF6584"/>
<path id="Vector_26" d="M843.157 725.871C842.945 725.752 842.714 725.674 842.476 725.641C841.285 725.442 840.104 725.177 838.94 724.846C837.77 724.513 836.696 723.885 835.809 723.016C835.478 722.608 835.109 722.237 834.707 721.907C834.503 721.745 834.258 721.649 834.003 721.63C833.748 721.61 833.493 721.669 833.269 721.799C833.223 721.837 833.181 721.879 833.142 721.926C832.979 721.812 832.816 721.699 832.653 721.586C831.784 720.985 830.911 720.391 830.034 719.804L829.998 719.78C830.023 719.635 830.024 719.487 830 719.342C829.847 718.865 829.537 718.462 829.127 718.203C830.259 718.192 831.397 718.083 832.522 717.958C833.594 717.977 834.629 717.552 835.405 716.774C835.521 716.639 835.592 716.467 835.605 716.285C835.607 715.913 835.241 715.669 834.913 715.528C834.476 715.34 834.023 715.2 833.559 715.108C833.235 715.06 832.914 714.99 832.599 714.898C832.318 714.79 832.047 714.656 831.79 714.496C831.232 714.174 830.675 713.851 830.117 713.529C829.879 713.408 829.661 713.249 829.47 713.057C829.186 712.741 829.06 712.295 828.771 711.984C828.504 711.698 827.425 711.322 827.271 711.908C827.21 712.139 827.442 712.395 827.47 712.654C827.097 712.408 826.711 712.185 826.313 711.986C826.334 711.934 826.363 711.887 826.382 711.834C824.53 710.275 823.06 708.274 822.092 705.999C822.257 706.002 822.423 706.014 822.589 706.012C822.871 706.039 823.154 705.967 823.393 705.806C823.491 705.712 823.568 705.596 823.617 705.466C823.667 705.336 823.687 705.196 823.678 705.057C823.656 704.779 823.591 704.506 823.485 704.25C823.249 703.483 822.871 702.772 822.375 702.157C821.893 701.668 821.345 701.259 820.747 700.942L820.651 700.885C820.61 700.756 820.573 700.625 820.524 700.499C820.164 699.712 819.756 698.95 819.304 698.218C818.667 696.991 818.197 695.677 817.908 694.313C817.802 693.483 817.499 692.693 817.028 692.017C816.157 691.009 814.663 691.034 813.376 691.187C813.088 691.221 812.802 691.271 812.515 691.313C812.932 691.441 813.308 691.684 813.605 692.017C814.076 692.693 814.378 693.483 814.485 694.313C814.774 695.677 815.244 696.991 815.881 698.218C816.333 698.95 816.741 699.712 817.101 700.499C817.15 700.625 817.187 700.756 817.228 700.885L817.324 700.942C817.922 701.259 818.47 701.668 818.951 702.157C819.448 702.772 819.826 703.483 820.062 704.25C820.168 704.506 820.233 704.779 820.254 705.057C820.264 705.196 820.243 705.336 820.194 705.466C820.145 705.596 820.068 705.712 819.97 705.806C819.731 705.967 819.448 706.039 819.166 706.012C819 706.014 818.834 706.002 818.668 705.999C819.636 708.274 821.107 710.275 822.958 711.834C822.94 711.887 822.911 711.934 822.889 711.986C823.287 712.185 823.674 712.408 824.047 712.654C824.019 712.395 823.786 712.139 823.847 711.908C824.002 711.322 825.081 711.698 825.347 711.984C825.637 712.295 825.763 712.741 826.047 713.057C826.238 713.249 826.456 713.408 826.694 713.529C827.252 713.851 827.809 714.174 828.367 714.496C828.624 714.656 828.895 714.79 829.176 714.898C829.491 714.99 829.812 715.06 830.136 715.108C830.6 715.2 831.053 715.34 831.49 715.528C831.818 715.669 832.184 715.913 832.182 716.285C832.169 716.467 832.098 716.639 831.981 716.774C831.206 717.552 830.171 717.977 829.099 717.958C827.974 718.083 826.836 718.192 825.704 718.203C826.114 718.462 826.424 718.865 826.577 719.342C826.601 719.487 826.6 719.635 826.575 719.78L826.61 719.804C827.488 720.391 828.361 720.985 829.23 721.586C829.393 721.699 829.556 721.812 829.719 721.926C829.757 721.879 829.8 721.837 829.846 721.799C830.07 721.669 830.325 721.61 830.58 721.63C830.835 721.649 831.079 721.745 831.284 721.907C831.686 722.237 832.055 722.608 832.386 723.016C833.272 723.885 834.347 724.513 835.516 724.846C836.681 725.177 837.862 725.442 839.053 725.641C839.291 725.674 839.522 725.752 839.734 725.871C839.96 726.046 840.131 726.289 840.221 726.569C840.311 726.849 840.318 727.151 840.239 727.435C840.07 728 839.767 728.51 839.358 728.918C839.036 729.319 838.637 729.644 838.186 729.871C837.908 729.982 837.615 730.049 837.318 730.071C838.351 730.167 839.389 730.179 840.423 730.107C840.828 730.096 841.229 730.017 841.61 729.871C842.06 729.644 842.459 729.319 842.781 728.918C843.19 728.51 843.493 728 843.662 727.435C843.741 727.151 843.735 726.849 843.644 726.569C843.554 726.289 843.384 726.046 843.157 725.871Z" fill="#FF6584"/>
<path id="Vector_27" d="M824.173 722.869C824.23 722.923 824.285 722.98 824.343 723.032C824.301 722.968 824.254 722.906 824.217 722.839L824.173 722.869Z" fill="#FF6584"/>
<path id="Vector_28" d="M875.145 712.905C875.145 725.607 869.755 722.104 863.106 722.104C856.456 722.104 851.066 725.607 851.066 712.905C851.066 700.204 863.106 676.109 863.106 676.109C863.106 676.109 875.145 700.204 875.145 712.905Z" fill="#FF6584"/>
<path id="Vector_29" opacity="0.1" d="M868.578 717.765C868.578 723.538 866.128 721.946 863.106 721.946C860.083 721.946 857.633 723.538 857.633 717.765C857.633 711.992 863.106 701.039 863.106 701.039C863.106 701.039 868.578 711.992 868.578 717.765Z" fill="black"/>
<path id="Vector_30" d="M849.232 692.324L821.846 701.914L822.207 703.052L849.593 693.462L849.232 692.324Z" fill="#FF6584"/>
<path id="Vector_31" d="M847.244 693.467C848.272 697.688 846.546 696.68 844.972 697.022C843.398 697.364 843.707 698.887 841.543 694.707C840.047 691.816 842.241 691.495 843.815 691.152C845.39 690.81 846.542 690.586 847.244 693.467Z" fill="#FF6584"/>
</g>
</g>
</g>
<defs>
<clipPath id="clip0_4_59">
<rect width="1018" height="753" fill="white"/>
</clipPath>
</defs>
</svg>
