<svg width="2824" height="2506" viewBox="0 0 2824 2506" fill="none" xmlns="http://www.w3.org/2000/svg">
<g id="undraw_snow_globe_923j 1" clip-path="url(#clip0_2_2)">
<g id="Group 1">
<path id="Vector" d="M858.036 382.543C882.221 382.543 901.827 362.032 901.827 336.729C901.827 311.427 882.221 290.916 858.036 290.916C833.85 290.916 814.244 311.427 814.244 336.729C814.244 362.032 833.85 382.543 858.036 382.543Z" fill="white"/>
<path id="Vector_2" d="M2215.58 1220.93C2239.76 1220.93 2259.37 1200.42 2259.37 1175.12C2259.37 1149.81 2239.76 1129.3 2215.58 1129.3C2191.39 1129.3 2171.79 1149.81 2171.79 1175.12C2171.79 1200.42 2191.39 1220.93 2215.58 1220.93Z" fill="white"/>
<path id="Vector_3" d="M1221.51 446.682C1245.69 446.682 1265.3 426.17 1265.3 400.868C1265.3 375.566 1245.69 355.055 1221.51 355.055C1197.32 355.055 1177.71 375.566 1177.71 400.868C1177.71 426.17 1197.32 446.682 1221.51 446.682Z" fill="white"/>
<path id="Vector_4" d="M1103.27 1871.48C1127.45 1871.48 1147.06 1850.97 1147.06 1825.67C1147.06 1800.37 1127.45 1779.86 1103.27 1779.86C1079.08 1779.86 1059.48 1800.37 1059.48 1825.67C1059.48 1850.97 1079.08 1871.48 1103.27 1871.48Z" fill="white"/>
<path id="Vector_5" d="M2399.5 1963.11C2423.69 1963.11 2443.29 1942.6 2443.29 1917.3C2443.29 1891.99 2423.69 1871.48 2399.5 1871.48C2375.32 1871.48 2355.71 1891.99 2355.71 1917.3C2355.71 1942.6 2375.32 1963.11 2399.5 1963.11Z" fill="white"/>
<path id="Vector_6" d="M1576.22 1353.79C1600.4 1353.79 1620.01 1333.28 1620.01 1307.98C1620.01 1282.67 1600.4 1262.16 1576.22 1262.16C1552.03 1262.16 1532.43 1282.67 1532.43 1307.98C1532.43 1333.28 1552.03 1353.79 1576.22 1353.79Z" fill="white"/>
<path id="Vector_7" d="M1707.59 900.236C1731.78 900.236 1751.39 879.724 1751.39 854.422C1751.39 829.12 1731.78 808.609 1707.59 808.609C1683.41 808.609 1663.8 829.12 1663.8 854.422C1663.8 879.724 1683.41 900.236 1707.59 900.236Z" fill="white"/>
</g>
<g id="Group 3">
<path id="Vector_8" d="M1471.78 527.609C1493.75 527.609 1511.57 508.98 1511.57 486C1511.57 463.02 1493.75 444.391 1471.78 444.391C1449.8 444.391 1431.99 463.02 1431.99 486C1431.99 508.98 1449.8 527.609 1471.78 527.609Z" fill="white"/>
<path id="Vector_9" d="M2705.24 1289.05C2727.22 1289.05 2745.03 1270.42 2745.03 1247.44C2745.03 1224.46 2727.22 1205.83 2705.24 1205.83C2683.27 1205.83 2665.45 1224.46 2665.45 1247.44C2665.45 1270.42 2683.27 1289.05 2705.24 1289.05Z" fill="white"/>
<path id="Vector_10" d="M1802.03 585.861C1824 585.861 1841.82 567.232 1841.82 544.252C1841.82 521.272 1824 502.643 1802.03 502.643C1780.05 502.643 1762.24 521.272 1762.24 544.252C1762.24 567.232 1780.05 585.861 1802.03 585.861Z" fill="white"/>
<path id="Vector_11" d="M1694.6 1879.89C1716.57 1879.89 1734.39 1861.26 1734.39 1838.28C1734.39 1815.3 1716.57 1796.67 1694.6 1796.67C1672.62 1796.67 1654.81 1815.3 1654.81 1838.28C1654.81 1861.26 1672.62 1879.89 1694.6 1879.89Z" fill="white"/>
<path id="Vector_12" d="M2124.32 1409.71C2146.29 1409.71 2164.11 1391.08 2164.11 1368.11C2164.11 1345.13 2146.29 1326.5 2124.32 1326.5C2102.34 1326.5 2084.53 1345.13 2084.53 1368.11C2084.53 1391.08 2102.34 1409.71 2124.32 1409.71Z" fill="white"/>
<path id="Vector_13" d="M2243.69 997.787C2265.66 997.787 2283.48 979.158 2283.48 956.179C2283.48 933.199 2265.66 914.57 2243.69 914.57C2221.71 914.57 2203.9 933.199 2203.9 956.179C2203.9 979.158 2221.71 997.787 2243.69 997.787Z" fill="white"/>
</g>
<g id="Group 2">
<path id="Vector_14" d="M296.488 255.363C319.959 255.363 338.985 236.144 338.985 212.437C338.985 188.729 319.959 169.51 296.488 169.51C273.018 169.51 253.992 188.729 253.992 212.437C253.992 236.144 273.018 255.363 296.488 255.363Z" fill="white"/>
<path id="Vector_15" d="M1613.89 1040.92C1637.36 1040.92 1656.38 1021.7 1656.38 997.994C1656.38 974.287 1637.36 955.068 1613.89 955.068C1590.42 955.068 1571.39 974.287 1571.39 997.994C1571.39 1021.7 1590.42 1040.92 1613.89 1040.92Z" fill="white"/>
<path id="Vector_16" d="M649.211 315.461C672.682 315.461 691.708 296.242 691.708 272.534C691.708 248.826 672.682 229.607 649.211 229.607C625.741 229.607 606.714 248.826 606.714 272.534C606.714 296.242 625.741 315.461 649.211 315.461Z" fill="white"/>
<path id="Vector_17" d="M534.47 1650.48C557.94 1650.48 576.967 1631.26 576.967 1607.55C576.967 1583.85 557.94 1564.63 534.47 1564.63C511 1564.63 491.973 1583.85 491.973 1607.55C491.973 1631.26 511 1650.48 534.47 1650.48Z" fill="white"/>
<path id="Vector_18" d="M1792.37 1736.33C1815.84 1736.33 1834.87 1717.11 1834.87 1693.41C1834.87 1669.7 1815.84 1650.48 1792.37 1650.48C1768.9 1650.48 1749.88 1669.7 1749.88 1693.41C1749.88 1717.11 1768.9 1736.33 1792.37 1736.33Z" fill="white"/>
<path id="Vector_19" d="M993.435 1165.41C1016.91 1165.41 1035.93 1146.19 1035.93 1122.48C1035.93 1098.77 1016.91 1079.56 993.435 1079.56C969.965 1079.56 950.938 1098.77 950.938 1122.48C950.938 1146.19 969.965 1165.41 993.435 1165.41Z" fill="white"/>
<path id="Vector_20" d="M1120.93 740.434C1144.4 740.434 1163.42 721.216 1163.42 697.508C1163.42 673.8 1144.4 654.581 1120.93 654.581C1097.45 654.581 1078.43 673.8 1078.43 697.508C1078.43 721.216 1097.45 740.434 1120.93 740.434Z" fill="white"/>
</g>
<g id="Group 4">
<path id="Vector_21" d="M674.914 1059.78C689.686 1059.78 701.661 1041.08 701.661 1018.02C701.661 994.952 689.686 976.255 674.914 976.255C660.142 976.255 648.167 994.952 648.167 1018.02C648.167 1041.08 660.142 1059.78 674.914 1059.78Z" fill="white"/>
<path id="Vector_22" d="M67.75 353.993C82.5221 353.993 94.4973 335.295 94.4973 312.23C94.4973 289.165 82.5221 270.468 67.75 270.468C52.9779 270.468 41.0027 289.165 41.0027 312.23C41.0027 335.295 52.9779 353.993 67.75 353.993Z" fill="white"/>
<path id="Vector_23" d="M-4.46778 1652.81C10.3044 1652.81 22.2795 1634.11 22.2795 1611.05C22.2795 1587.98 10.3044 1569.28 -4.46778 1569.28C-19.2399 1569.28 -31.2151 1587.98 -31.2151 1611.05C-31.2151 1634.11 -19.2399 1652.81 -4.46778 1652.81Z" fill="white"/>
<path id="Vector_24" d="M787.253 1736.33C802.025 1736.33 814 1717.64 814 1694.57C814 1671.51 802.025 1652.81 787.253 1652.81C772.481 1652.81 760.505 1671.51 760.505 1694.57C760.505 1717.64 772.481 1736.33 787.253 1736.33Z" fill="white"/>
<path id="Vector_25" d="M284.403 1180.89C299.175 1180.89 311.15 1162.19 311.15 1139.13C311.15 1116.06 299.175 1097.37 284.403 1097.37C269.631 1097.37 257.656 1116.06 257.656 1139.13C257.656 1162.19 269.631 1180.89 284.403 1180.89Z" fill="white"/>
<path id="Vector_26" d="M364.645 767.442C379.417 767.442 391.392 748.744 391.392 725.679C391.392 702.614 379.417 683.917 364.645 683.917C349.873 683.917 337.898 702.614 337.898 725.679C337.898 748.744 349.873 767.442 364.645 767.442Z" fill="white"/>
</g>
</g>
<defs>
<clipPath id="clip0_2_2">
<rect width="2824" height="2506" fill="white"/>
</clipPath>
</defs>
</svg>
